solid MotorGear
facet normal -0.5973993236601249 0.8019439182950546 -0.0
  outer loop
    vertex -7.538076220364095 -3.4666949388840718 6.009147240000001
    vertex -4.303425757812498 -1.0570775647496056 0.0
    vertex -7.538076220364095 -3.4666949388840718 0.0
  endloop
endfacet
facet normal -0.5973993236601249 0.8019439182950546 -0.0
  outer loop
    vertex -4.303425757812498 -1.0570775647496056 0.0
    vertex -7.538076220364095 -3.4666949388840718 6.009147240000001
    vertex -4.303425757812498 -1.0570775647496056 6.009147240000001
  endloop
endfacet
facet normal -0.40287585575693974 0.9152546338850808 -0.0
  outer loop
    vertex 3.0358712618749992 3.144128141306531 6.009147240000001
    vertex 6.724337531614094 4.767713480114361 0.0
    vertex 3.0358712618749992 3.144128141306531 0.0
  endloop
endfacet
facet normal -0.40287585575693974 0.9152546338850808 -0.0
  outer loop
    vertex 6.724337531614094 4.767713480114361 0.0
    vertex 3.0358712618749992 3.144128141306531 6.009147240000001
    vertex 6.724337531614094 4.767713480114361 6.009147240000001
  endloop
endfacet
facet normal 0.9940716917543756 -0.10872659128563437 -0.0
  outer loop
    vertex 1.1580127493750028 -4.228310258998427 0.0
    vertex 0.7198457631250049 -8.234408418998424 6.009147240000001
    vertex 0.7198457631250049 -8.234408418998424 0.0
  endloop
endfacet
facet normal 0.9940716917543756 -0.10872659128563437 -0.0
  outer loop
    vertex 0.7198457631250049 -8.234408418998424 6.009147240000001
    vertex 1.1580127493750028 -4.228310258998427 0.0
    vertex 1.1580127493750028 -4.228310258998427 6.009147240000001
  endloop
endfacet
facet normal 0.0 -1.0 0.0
  outer loop
    vertex 2.5977042756250013 1.5022868100000009 6.009147240000001
    vertex -2.597704275625 1.5022868100000009 0.0
    vertex 2.5977042756250013 1.5022868100000009 0.0
  endloop
endfacet
facet normal 0.0 -1.0 0.0
  outer loop
    vertex -2.597704275625 1.5022868100000009 0.0
    vertex 2.5977042756250013 1.5022868100000009 6.009147240000001
    vertex -2.597704275625 1.5022868100000009 6.009147240000001
  endloop
endfacet
facet normal -0.9932034674840121 -0.11639103134578266 0.0
  outer loop
    vertex -1.251905675 -4.228310258998427 6.009147240000001
    vertex -0.7824410468750002 -8.234408418998425 0.0
    vertex -0.7824410468750002 -8.234408418998425 6.009147240000001
  endloop
endfacet
facet normal -0.9932034674840121 -0.11639103134578266 0.0
  outer loop
    vertex -0.7824410468750002 -8.234408418998425 0.0
    vertex -1.251905675 -4.228310258998427 6.009147240000001
    vertex -1.251905675 -4.228310258998427 0.0
  endloop
endfacet
facet normal -0.5911958359974346 -0.8065280425994465 0.0
  outer loop
    vertex -4.287776936875002 1.0841821176919055 6.009147240000001
    vertex -7.5380762203641005 3.466694938884069 0.0
    vertex -4.287776936875002 1.0841821176919055 0.0
  endloop
endfacet
facet normal -0.5911958359974346 -0.8065280425994465 0.0
  outer loop
    vertex -7.5380762203641005 3.466694938884069 0.0
    vertex -4.287776936875002 1.0841821176919055 6.009147240000001
    vertex -7.5380762203641005 3.466694938884069 6.009147240000001
  endloop
endfacet
facet normal -0.0 -0.0 1.0
  outer loop
    vertex -4.287776936875002 1.0841821176919055 6.009147240000001
    vertex -6.786932815364101 4.767713480114356 6.009147240000001
    vertex -7.5380762203641005 3.466694938884069 6.009147240000001
  endloop
endfacet
facet normal -0.0 -0.0 1.0
  outer loop
    vertex -6.786932815364101 4.767713480114356 6.009147240000001
    vertex -4.287776936875002 1.0841821176919055 6.009147240000001
    vertex -3.082817724687507 3.171232694248824 6.009147240000001
  endloop
endfacet
facet normal -0.0 -0.0 1.0
  outer loop
    vertex -3.082817724687507 3.171232694248824 6.009147240000001
    vertex -4.287776936875002 1.0841821176919055 6.009147240000001
    vertex -3.098466545625003 -3.1441281413065254 6.009147240000001
  endloop
endfacet
facet normal -0.0 -0.0 1.0
  outer loop
    vertex -3.082817724687507 3.171232694248824 6.009147240000001
    vertex -3.098466545625003 -3.1441281413065254 6.009147240000001
    vertex -2.597704275625 -1.5022868100000009 6.009147240000001
  endloop
endfacet
facet normal -0.0 -0.0 1.0
  outer loop
    vertex -2.597704275625 -1.5022868100000009 6.009147240000001
    vertex -3.098466545625003 -3.1441281413065254 6.009147240000001
    vertex -1.251905675 -4.228310258998427 6.009147240000001
  endloop
endfacet
facet normal -0.0 -0.0 1.0
  outer loop
    vertex -2.597704275625 -1.5022868100000009 6.009147240000001
    vertex -1.251905675 -4.228310258998427 6.009147240000001
    vertex 2.5977042756250013 -1.5022868100000009 6.009147240000001
  endloop
endfacet
facet normal -0.0 -0.0 1.0
  outer loop
    vertex 2.5977042756250013 -1.5022868100000009 6.009147240000001
    vertex -1.251905675 -4.228310258998427 6.009147240000001
    vertex 1.1580127493750028 -4.228310258998427 6.009147240000001
  endloop
endfacet
facet normal -0.0 -0.0 1.0
  outer loop
    vertex 1.1580127493750028 -4.228310258998427 6.009147240000001
    vertex -1.251905675 -4.228310258998427 6.009147240000001
    vertex -0.7824410468750002 -8.234408418998425 6.009147240000001
  endloop
endfacet
facet normal -0.0 -0.0 1.0
  outer loop
    vertex 1.1580127493750028 -4.228310258998427 6.009147240000001
    vertex -0.7824410468750002 -8.234408418998425 6.009147240000001
    vertex 0.7198457631250049 -8.234408418998424 6.009147240000001
  endloop
endfacet
facet normal -0.0 -0.0 1.0
  outer loop
    vertex 2.5977042756250013 -1.5022868100000009 6.009147240000001
    vertex 1.1580127493750028 -4.228310258998427 6.009147240000001
    vertex 3.0202224409375003 -3.1712326942488183 6.009147240000001
  endloop
endfacet
facet normal -0.0 -0.0 1.0
  outer loop
    vertex 2.5977042756250013 -1.5022868100000009 6.009147240000001
    vertex 3.0202224409375003 -3.1712326942488183 6.009147240000001
    vertex 2.5977042756250013 1.5022868100000009 6.009147240000001
  endloop
endfacet
facet normal -0.0 -0.0 1.0
  outer loop
    vertex -3.082817724687507 3.171232694248824 6.009147240000001
    vertex -2.597704275625 1.5022868100000009 6.009147240000001
    vertex -1.2206080331250024 4.228310258998435 6.009147240000001
  endloop
endfacet
facet normal -0.0 -0.0 1.0
  outer loop
    vertex -2.597704275625 1.5022868100000009 6.009147240000001
    vertex -3.082817724687507 3.171232694248824 6.009147240000001
    vertex -2.597704275625 -1.5022868100000009 6.009147240000001
  endloop
endfacet
facet normal -0.0 -0.0 1.0
  outer loop
    vertex -1.2206080331250024 4.228310258998435 6.009147240000001
    vertex -2.597704275625 1.5022868100000009 6.009147240000001
    vertex 2.5977042756250013 1.5022868100000009 6.009147240000001
  endloop
endfacet
facet normal -0.0 -0.0 1.0
  outer loop
    vertex -1.2206080331250024 4.228310258998435 6.009147240000001
    vertex 2.5977042756250013 1.5022868100000009 6.009147240000001
    vertex 1.1893103912500034 4.228310258998435 6.009147240000001
  endloop
endfacet
facet normal -0.0 -0.0 1.0
  outer loop
    vertex -1.2206080331250024 4.228310258998435 6.009147240000001
    vertex 1.1893103912500034 4.228310258998435 6.009147240000001
    vertex -0.7824410468750002 8.234408418998429 6.009147240000001
  endloop
endfacet
facet normal -0.0 -0.0 1.0
  outer loop
    vertex -0.7824410468750002 8.234408418998429 6.009147240000001
    vertex 1.1893103912500034 4.228310258998435 6.009147240000001
    vertex 0.7198457631249993 8.234408418998429 6.009147240000001
  endloop
endfacet
facet normal -0.0 -0.0 1.0
  outer loop
    vertex 1.1893103912500034 4.228310258998435 6.009147240000001
    vertex 2.5977042756250013 1.5022868100000009 6.009147240000001
    vertex 3.0358712618749992 3.144128141306531 6.009147240000001
  endloop
endfacet
facet normal -0.0 -0.0 1.0
  outer loop
    vertex 3.0358712618749992 3.144128141306531 6.009147240000001
    vertex 2.5977042756250013 1.5022868100000009 6.009147240000001
    vertex 3.0202224409375003 -3.1712326942488183 6.009147240000001
  endloop
endfacet
facet normal -0.0 -0.0 1.0
  outer loop
    vertex 3.0358712618749992 3.144128141306531 6.009147240000001
    vertex 3.0202224409375003 -3.1712326942488183 6.009147240000001
    vertex 4.225181653125002 -1.0841821176919 6.009147240000001
  endloop
endfacet
facet normal -0.0 -0.0 1.0
  outer loop
    vertex 3.0358712618749992 3.144128141306531 6.009147240000001
    vertex 4.225181653125002 -1.0841821176919 6.009147240000001
    vertex 4.2408304740625 1.0570775647496113 6.009147240000001
  endloop
endfacet
facet normal -0.0 -0.0 1.0
  outer loop
    vertex 3.0358712618749992 3.144128141306531 6.009147240000001
    vertex 4.2408304740625 1.0570775647496113 6.009147240000001
    vertex 6.724337531614094 4.767713480114361 6.009147240000001
  endloop
endfacet
facet normal -0.0 -0.0 1.0
  outer loop
    vertex 6.724337531614094 4.767713480114361 6.009147240000001
    vertex 4.2408304740625 1.0570775647496113 6.009147240000001
    vertex 7.475480936614097 3.4666949388840775 6.009147240000001
  endloop
endfacet
facet normal -0.0 -0.0 1.0
  outer loop
    vertex -6.7869328153640955 -4.767713480114357 6.009147240000001
    vertex -4.303425757812498 -1.0570775647496056 6.009147240000001
    vertex -7.538076220364095 -3.4666949388840718 6.009147240000001
  endloop
endfacet
facet normal -0.0 -0.0 1.0
  outer loop
    vertex -4.303425757812498 -1.0570775647496056 6.009147240000001
    vertex -6.7869328153640955 -4.767713480114357 6.009147240000001
    vertex -3.098466545625003 -3.1441281413065254 6.009147240000001
  endloop
endfacet
facet normal -0.0 -0.0 1.0
  outer loop
    vertex -4.303425757812498 -1.0570775647496056 6.009147240000001
    vertex -3.098466545625003 -3.1441281413065254 6.009147240000001
    vertex -4.287776936875002 1.0841821176919055 6.009147240000001
  endloop
endfacet
facet normal 0.9932034674840119 0.11639103134578382 -0.0
  outer loop
    vertex 0.7198457631249993 8.234408418998429 0.0
    vertex 1.1893103912500034 4.228310258998435 6.009147240000001
    vertex 1.1893103912500034 4.228310258998435 0.0
  endloop
endfacet
facet normal 0.9932034674840119 0.11639103134578382 -0.0
  outer loop
    vertex 1.1893103912500034 4.228310258998435 6.009147240000001
    vertex 0.7198457631249993 8.234408418998429 0.0
    vertex 0.7198457631249993 8.234408418998429 6.009147240000001
  endloop
endfacet
facet normal 0.0 0.0 -1.0
  outer loop
    vertex 3.0358712618749992 3.144128141306531 0.0
    vertex 4.2408304740625 1.0570775647496113 0.0
    vertex 4.225181653125002 -1.0841821176919 0.0
  endloop
endfacet
facet normal 0.0 0.0 -1.0
  outer loop
    vertex 4.2408304740625 1.0570775647496113 0.0
    vertex 3.0358712618749992 3.144128141306531 0.0
    vertex 6.724337531614094 4.767713480114361 0.0
  endloop
endfacet
facet normal 0.0 0.0 -1.0
  outer loop
    vertex 4.2408304740625 1.0570775647496113 0.0
    vertex 6.724337531614094 4.767713480114361 0.0
    vertex 7.475480936614097 3.4666949388840775 0.0
  endloop
endfacet
facet normal 0.0 0.0 -1.0
  outer loop
    vertex -1.2206080331250024 4.228310258998435 0.0
    vertex -2.597704275625 1.5022868100000009 0.0
    vertex -3.082817724687507 3.171232694248824 0.0
  endloop
endfacet
facet normal 0.0 0.0 -1.0
  outer loop
    vertex -2.597704275625 1.5022868100000009 0.0
    vertex -1.2206080331250024 4.228310258998435 0.0
    vertex 2.5977042756250013 1.5022868100000009 0.0
  endloop
endfacet
facet normal 0.0 0.0 -1.0
  outer loop
    vertex 2.5977042756250013 1.5022868100000009 0.0
    vertex -1.2206080331250024 4.228310258998435 0.0
    vertex 1.1893103912500034 4.228310258998435 0.0
  endloop
endfacet
facet normal 0.0 0.0 -1.0
  outer loop
    vertex 1.1893103912500034 4.228310258998435 0.0
    vertex -1.2206080331250024 4.228310258998435 0.0
    vertex -0.7824410468750002 8.234408418998429 0.0
  endloop
endfacet
facet normal 0.0 0.0 -1.0
  outer loop
    vertex 1.1893103912500034 4.228310258998435 0.0
    vertex -0.7824410468750002 8.234408418998429 0.0
    vertex 0.7198457631249993 8.234408418998429 0.0
  endloop
endfacet
facet normal 0.0 0.0 -1.0
  outer loop
    vertex 2.5977042756250013 1.5022868100000009 0.0
    vertex 1.1893103912500034 4.228310258998435 0.0
    vertex 3.0358712618749992 3.144128141306531 0.0
  endloop
endfacet
facet normal 0.0 0.0 -1.0
  outer loop
    vertex 2.5977042756250013 1.5022868100000009 0.0
    vertex 3.0358712618749992 3.144128141306531 0.0
    vertex 2.5977042756250013 -1.5022868100000009 0.0
  endloop
endfacet
facet normal 0.0 0.0 -1.0
  outer loop
    vertex 2.5977042756250013 -1.5022868100000009 0.0
    vertex 3.0358712618749992 3.144128141306531 0.0
    vertex 3.0202224409375003 -3.1712326942488183 0.0
  endloop
endfacet
facet normal 0.0 0.0 -1.0
  outer loop
    vertex 3.0202224409375003 -3.1712326942488183 0.0
    vertex 3.0358712618749992 3.144128141306531 0.0
    vertex 4.225181653125002 -1.0841821176919 0.0
  endloop
endfacet
facet normal 0.0 0.0 -1.0
  outer loop
    vertex 3.0202224409375003 -3.1712326942488183 0.0
    vertex 4.225181653125002 -1.0841821176919 0.0
    vertex 6.724337531614097 -4.7677134801143515 0.0
  endloop
endfacet
facet normal 0.0 0.0 -1.0
  outer loop
    vertex 6.724337531614097 -4.7677134801143515 0.0
    vertex 4.225181653125002 -1.0841821176919 0.0
    vertex 7.475480936614097 -3.4666949388840655 0.0
  endloop
endfacet
facet normal 0.0 0.0 -1.0
  outer loop
    vertex -6.786932815364101 4.767713480114356 0.0
    vertex -4.287776936875002 1.0841821176919055 0.0
    vertex -7.5380762203641005 3.466694938884069 0.0
  endloop
endfacet
facet normal 0.0 0.0 -1.0
  outer loop
    vertex -4.287776936875002 1.0841821176919055 0.0
    vertex -6.786932815364101 4.767713480114356 0.0
    vertex -3.082817724687507 3.171232694248824 0.0
  endloop
endfacet
facet normal 0.0 0.0 -1.0
  outer loop
    vertex -4.287776936875002 1.0841821176919055 0.0
    vertex -3.082817724687507 3.171232694248824 0.0
    vertex -3.098466545625003 -3.1441281413065254 0.0
  endloop
endfacet
facet normal 0.0 0.0 -1.0
  outer loop
    vertex -3.098466545625003 -3.1441281413065254 0.0
    vertex -3.082817724687507 3.171232694248824 0.0
    vertex -2.597704275625 -1.5022868100000009 0.0
  endloop
endfacet
facet normal 0.0 0.0 -1.0
  outer loop
    vertex -3.098466545625003 -3.1441281413065254 0.0
    vertex -2.597704275625 -1.5022868100000009 0.0
    vertex -1.251905675 -4.228310258998427 0.0
  endloop
endfacet
facet normal 0.0 0.0 -1.0
  outer loop
    vertex -2.597704275625 -1.5022868100000009 0.0
    vertex -3.082817724687507 3.171232694248824 0.0
    vertex -2.597704275625 1.5022868100000009 0.0
  endloop
endfacet
facet normal 0.0 0.0 -1.0
  outer loop
    vertex -1.251905675 -4.228310258998427 0.0
    vertex -2.597704275625 -1.5022868100000009 0.0
    vertex 2.5977042756250013 -1.5022868100000009 0.0
  endloop
endfacet
facet normal 0.0 0.0 -1.0
  outer loop
    vertex -1.251905675 -4.228310258998427 0.0
    vertex 2.5977042756250013 -1.5022868100000009 0.0
    vertex 1.1580127493750028 -4.228310258998427 0.0
  endloop
endfacet
facet normal 0.0 0.0 -1.0
  outer loop
    vertex -1.251905675 -4.228310258998427 0.0
    vertex 1.1580127493750028 -4.228310258998427 0.0
    vertex -0.7824410468750002 -8.234408418998425 0.0
  endloop
endfacet
facet normal 0.0 0.0 -1.0
  outer loop
    vertex -0.7824410468750002 -8.234408418998425 0.0
    vertex 1.1580127493750028 -4.228310258998427 0.0
    vertex 0.7198457631250049 -8.234408418998424 0.0
  endloop
endfacet
facet normal 0.0 0.0 -1.0
  outer loop
    vertex 1.1580127493750028 -4.228310258998427 0.0
    vertex 2.5977042756250013 -1.5022868100000009 0.0
    vertex 3.0202224409375003 -3.1712326942488183 0.0
  endloop
endfacet
facet normal 0.0 0.0 -1.0
  outer loop
    vertex -4.303425757812498 -1.0570775647496056 0.0
    vertex -6.7869328153640955 -4.767713480114357 0.0
    vertex -7.538076220364095 -3.4666949388840718 0.0
  endloop
endfacet
facet normal 0.0 0.0 -1.0
  outer loop
    vertex -6.7869328153640955 -4.767713480114357 0.0
    vertex -4.303425757812498 -1.0570775647496056 0.0
    vertex -3.098466545625003 -3.1441281413065254 0.0
  endloop
endfacet
facet normal 0.0 0.0 -1.0
  outer loop
    vertex -3.098466545625003 -3.1441281413065254 0.0
    vertex -4.303425757812498 -1.0570775647496056 0.0
    vertex -4.287776936875002 1.0841821176919055 0.0
  endloop
endfacet
facet normal 0.40287585575694035 -0.9152546338850807 0.0
  outer loop
    vertex -3.098466545625003 -3.1441281413065254 6.009147240000001
    vertex -6.7869328153640955 -4.767713480114357 0.0
    vertex -3.098466545625003 -3.1441281413065254 0.0
  endloop
endfacet
facet normal 0.40287585575694035 -0.9152546338850807 0.0
  outer loop
    vertex -6.7869328153640955 -4.767713480114357 0.0
    vertex -3.098466545625003 -3.1441281413065254 6.009147240000001
    vertex -6.7869328153640955 -4.767713480114357 6.009147240000001
  endloop
endfacet
facet normal -0.8660254037844389 0.49999999999999983 0.0
  outer loop
    vertex -6.786932815364101 4.767713480114356 6.009147240000001
    vertex -7.5380762203641005 3.466694938884069 0.0
    vertex -7.5380762203641005 3.466694938884069 6.009147240000001
  endloop
endfacet
facet normal -0.8660254037844389 0.49999999999999983 0.0
  outer loop
    vertex -7.5380762203641005 3.466694938884069 0.0
    vertex -6.786932815364101 4.767713480114356 6.009147240000001
    vertex -6.786932815364101 4.767713480114356 0.0
  endloop
endfacet
facet normal -0.9940716917543756 0.10872659128563557 0.0
  outer loop
    vertex -0.7824410468750002 8.234408418998429 6.009147240000001
    vertex -1.2206080331250024 4.228310258998435 0.0
    vertex -1.2206080331250024 4.228310258998435 6.009147240000001
  endloop
endfacet
facet normal -0.9940716917543756 0.10872659128563557 0.0
  outer loop
    vertex -1.2206080331250024 4.228310258998435 0.0
    vertex -0.7824410468750002 8.234408418998429 6.009147240000001
    vertex -0.7824410468750002 8.234408418998429 0.0
  endloop
endfacet
facet normal 1.0 -0.0 -0.0
  outer loop
    vertex -2.597704275625 1.5022868100000009 0.0
    vertex -2.597704275625 -1.5022868100000009 6.009147240000001
    vertex -2.597704275625 -1.5022868100000009 0.0
  endloop
endfacet
facet normal 1.0 -0.0 -0.0
  outer loop
    vertex -2.597704275625 -1.5022868100000009 6.009147240000001
    vertex -2.597704275625 1.5022868100000009 0.0
    vertex -2.597704275625 1.5022868100000009 6.009147240000001
  endloop
endfacet
facet normal 0.5973993236601249 -0.8019439182950546 0.0
  outer loop
    vertex 7.475480936614097 3.4666949388840775 6.009147240000001
    vertex 4.2408304740625 1.0570775647496113 0.0
    vertex 7.475480936614097 3.4666949388840775 0.0
  endloop
endfacet
facet normal 0.5973993236601249 -0.8019439182950546 0.0
  outer loop
    vertex 4.2408304740625 1.0570775647496113 0.0
    vertex 7.475480936614097 3.4666949388840775 6.009147240000001
    vertex 4.2408304740625 1.0570775647496113 6.009147240000001
  endloop
endfacet
facet normal 9.385579583661152e-16 -1.0 0.0
  outer loop
    vertex 0.7198457631250049 -8.234408418998424 6.009147240000001
    vertex -0.7824410468750002 -8.234408418998425 0.0
    vertex 0.7198457631250049 -8.234408418998424 0.0
  endloop
endfacet
facet normal 9.385579583661152e-16 -1.0 0.0
  outer loop
    vertex -0.7824410468750002 -8.234408418998425 0.0
    vertex 0.7198457631250049 -8.234408418998424 6.009147240000001
    vertex -0.7824410468750002 -8.234408418998425 6.009147240000001
  endloop
endfacet
facet normal 0.8660254037844387 -0.4999999999999999 9.685499426167156e-18
  outer loop
    vertex 7.475480936614097 -3.4666949388840655 0.0
    vertex 6.724337531614097 -4.7677134801143515 6.009147240000001
    vertex 6.724337531614097 -4.7677134801143515 0.0
  endloop
endfacet
facet normal 0.8660254037844387 -0.4999999999999999 9.685499426167156e-18
  outer loop
    vertex 6.724337531614097 -4.7677134801143515 6.009147240000001
    vertex 7.475480936614097 -3.4666949388840655 0.0
    vertex 7.475480936614097 -3.4666949388840655 6.009147240000001
  endloop
endfacet
facet normal 0.39580414382388684 0.9183349496408377 -0.0
  outer loop
    vertex -6.786932815364101 4.767713480114356 6.009147240000001
    vertex -3.082817724687507 3.171232694248824 0.0
    vertex -6.786932815364101 4.767713480114356 0.0
  endloop
endfacet
facet normal 0.39580414382388684 0.9183349496408377 -0.0
  outer loop
    vertex -3.082817724687507 3.171232694248824 0.0
    vertex -6.786932815364101 4.767713480114356 6.009147240000001
    vertex -3.082817724687507 3.171232694248824 6.009147240000001
  endloop
endfacet
facet normal 0.5911958359974354 0.8065280425994458 -0.0
  outer loop
    vertex 4.225181653125002 -1.0841821176919 6.009147240000001
    vertex 7.475480936614097 -3.4666949388840655 0.0
    vertex 4.225181653125002 -1.0841821176919 0.0
  endloop
endfacet
facet normal 0.5911958359974354 0.8065280425994458 -0.0
  outer loop
    vertex 7.475480936614097 -3.4666949388840655 0.0
    vertex 4.225181653125002 -1.0841821176919 6.009147240000001
    vertex 7.475480936614097 -3.4666949388840655 6.009147240000001
  endloop
endfacet
facet normal -0.0 1.0 -0.0
  outer loop
    vertex -0.7824410468750002 8.234408418998429 6.009147240000001
    vertex 0.7198457631249993 8.234408418998429 0.0
    vertex -0.7824410468750002 8.234408418998429 0.0
  endloop
endfacet
facet normal -0.0 1.0 -0.0
  outer loop
    vertex 0.7198457631249993 8.234408418998429 0.0
    vertex -0.7824410468750002 8.234408418998429 6.009147240000001
    vertex 0.7198457631249993 8.234408418998429 6.009147240000001
  endloop
endfacet
facet normal -0.0 1.0 -0.0
  outer loop
    vertex -2.597704275625 -1.5022868100000009 6.009147240000001
    vertex 2.5977042756250013 -1.5022868100000009 0.0
    vertex -2.597704275625 -1.5022868100000009 0.0
  endloop
endfacet
facet normal -0.0 1.0 -0.0
  outer loop
    vertex 2.5977042756250013 -1.5022868100000009 0.0
    vertex -2.597704275625 -1.5022868100000009 6.009147240000001
    vertex 2.5977042756250013 -1.5022868100000009 6.009147240000001
  endloop
endfacet
facet normal 0.8660254037844375 0.500000000000002 -0.0
  outer loop
    vertex 6.724337531614094 4.767713480114361 0.0
    vertex 7.475480936614097 3.4666949388840775 6.009147240000001
    vertex 7.475480936614097 3.4666949388840775 0.0
  endloop
endfacet
facet normal 0.8660254037844375 0.500000000000002 -0.0
  outer loop
    vertex 7.475480936614097 3.4666949388840775 6.009147240000001
    vertex 6.724337531614094 4.767713480114361 0.0
    vertex 6.724337531614094 4.767713480114361 6.009147240000001
  endloop
endfacet
facet normal -0.8660254037844385 -0.5000000000000001 0.0
  outer loop
    vertex -7.538076220364095 -3.4666949388840718 6.009147240000001
    vertex -6.7869328153640955 -4.767713480114357 0.0
    vertex -6.7869328153640955 -4.767713480114357 6.009147240000001
  endloop
endfacet
facet normal -0.8660254037844385 -0.5000000000000001 0.0
  outer loop
    vertex -6.7869328153640955 -4.767713480114357 0.0
    vertex -7.538076220364095 -3.4666949388840718 6.009147240000001
    vertex -7.538076220364095 -3.4666949388840718 0.0
  endloop
endfacet
facet normal -0.3958041438238869 -0.9183349496408377 0.0
  outer loop
    vertex 6.724337531614097 -4.7677134801143515 6.009147240000001
    vertex 3.0202224409375003 -3.1712326942488183 0.0
    vertex 6.724337531614097 -4.7677134801143515 0.0
  endloop
endfacet
facet normal -0.3958041438238869 -0.9183349496408377 0.0
  outer loop
    vertex 3.0202224409375003 -3.1712326942488183 0.0
    vertex 6.724337531614097 -4.7677134801143515 6.009147240000001
    vertex 3.0202224409375003 -3.1712326942488183 6.009147240000001
  endloop
endfacet
facet normal -1.0 0.0 0.0
  outer loop
    vertex 2.5977042756250013 1.5022868100000009 6.009147240000001
    vertex 2.5977042756250013 -1.5022868100000009 0.0
    vertex 2.5977042756250013 -1.5022868100000009 6.009147240000001
  endloop
endfacet
facet normal -1.0 0.0 0.0
  outer loop
    vertex 2.5977042756250013 -1.5022868100000009 0.0
    vertex 2.5977042756250013 1.5022868100000009 6.009147240000001
    vertex 2.5977042756250013 1.5022868100000009 0.0
  endloop
endfacet
facet normal -0.0 -0.0 1.0
  outer loop
    vertex 6.724337531614097 -4.7677134801143515 6.009147240000001
    vertex 4.225181653125002 -1.0841821176919 6.009147240000001
    vertex 3.0202224409375003 -3.1712326942488183 6.009147240000001
  endloop
endfacet
facet normal -0.0 -0.0 1.0
  outer loop
    vertex 4.225181653125002 -1.0841821176919 6.009147240000001
    vertex 6.724337531614097 -4.7677134801143515 6.009147240000001
    vertex 7.475480936614097 -3.4666949388840655 6.009147240000001
  endloop
endfacet
facet normal -0.5063155928848868 -0.862348259348638 0.0
  outer loop
    vertex -1.251905675 -4.228310258998427 6.009147240000001
    vertex -3.098466545625003 -3.1441281413065254 0.0
    vertex -1.251905675 -4.228310258998427 0.0
  endloop
endfacet
facet normal -0.5063155928848868 -0.862348259348638 0.0
  outer loop
    vertex -3.098466545625003 -3.1441281413065254 0.0
    vertex -1.251905675 -4.228310258998427 6.009147240000001
    vertex -3.098466545625003 -3.1441281413065254 6.009147240000001
  endloop
endfacet
facet normal 0.4936577030627673 -0.8696562954448113 0.0
  outer loop
    vertex 3.0202224409375003 -3.1712326942488183 6.009147240000001
    vertex 1.1580127493750028 -4.228310258998427 0.0
    vertex 3.0202224409375003 -3.1712326942488183 0.0
  endloop
endfacet
facet normal 0.4936577030627673 -0.8696562954448113 0.0
  outer loop
    vertex 1.1580127493750028 -4.228310258998427 0.0
    vertex 3.0202224409375003 -3.1712326942488183 6.009147240000001
    vertex 1.1580127493750028 -4.228310258998427 6.009147240000001
  endloop
endfacet
facet normal 0.9999732959476554 -0.007308036096173685 -0.0
  outer loop
    vertex 4.2408304740625 1.0570775647496113 0.0
    vertex 4.225181653125002 -1.0841821176919 6.009147240000001
    vertex 4.225181653125002 -1.0841821176919 0.0
  endloop
endfacet
facet normal 0.9999732959476554 -0.007308036096173685 -0.0
  outer loop
    vertex 4.225181653125002 -1.0841821176919 6.009147240000001
    vertex 4.2408304740625 1.0570775647496113 0.0
    vertex 4.2408304740625 1.0570775647496113 6.009147240000001
  endloop
endfacet
facet normal 0.5063155928848891 0.8623482593486365 -0.0
  outer loop
    vertex 1.1893103912500034 4.228310258998435 6.009147240000001
    vertex 3.0358712618749992 3.144128141306531 0.0
    vertex 1.1893103912500034 4.228310258998435 0.0
  endloop
endfacet
facet normal 0.5063155928848891 0.8623482593486365 -0.0
  outer loop
    vertex 3.0358712618749992 3.144128141306531 0.0
    vertex 1.1893103912500034 4.228310258998435 6.009147240000001
    vertex 3.0358712618749992 3.144128141306531 6.009147240000001
  endloop
endfacet
facet normal -0.49365770306276696 0.8696562954448114 -0.0
  outer loop
    vertex -3.082817724687507 3.171232694248824 6.009147240000001
    vertex -1.2206080331250024 4.228310258998435 0.0
    vertex -3.082817724687507 3.171232694248824 0.0
  endloop
endfacet
facet normal -0.49365770306276696 0.8696562954448114 -0.0
  outer loop
    vertex -1.2206080331250024 4.228310258998435 0.0
    vertex -3.082817724687507 3.171232694248824 6.009147240000001
    vertex -1.2206080331250024 4.228310258998435 6.009147240000001
  endloop
endfacet
facet normal -0.9999732959476554 0.0073080360961730265 0.0
  outer loop
    vertex -4.287776936875002 1.0841821176919055 6.009147240000001
    vertex -4.303425757812498 -1.0570775647496056 0.0
    vertex -4.303425757812498 -1.0570775647496056 6.009147240000001
  endloop
endfacet
facet normal -0.9999732959476554 0.0073080360961730265 0.0
  outer loop
    vertex -4.303425757812498 -1.0570775647496056 0.0
    vertex -4.287776936875002 1.0841821176919055 6.009147240000001
    vertex -4.287776936875002 1.0841821176919055 0.0
  endloop
endfacet
endsolid MotorGear
