solid Funnel-Brackets-2LiterPop
facet normal 0.0 0.0 -1.0
  outer loop
    vertex 7.999999999999999 20.0 0.0
    vertex 11.0 20.0 0.0
    vertex 7.999999999999999 3.0 0.0
  endloop
endfacet
facet normal 0.0 0.0 -1.0
  outer loop
    vertex 11.0 20.0 0.0
    vertex 7.999999999999999 20.0 0.0
    vertex 15.875000000000005 35.0 0.0
  endloop
endfacet
facet normal 0.0 0.0 -1.0
  outer loop
    vertex 11.0 20.0 0.0
    vertex 15.875000000000005 35.0 0.0
    vertex 18.84248689812448 35.00000000000001 0.0
  endloop
endfacet
facet normal 0.0 0.0 -1.0
  outer loop
    vertex 7.999999999999999 3.0 0.0
    vertex 0.0 0.0 0.0
    vertex 0.0 3.0 0.0
  endloop
endfacet
facet normal 0.0 0.0 -1.0
  outer loop
    vertex 0.0 0.0 0.0
    vertex 7.999999999999999 3.0 0.0
    vertex 11.0 0.0 0.0
  endloop
endfacet
facet normal 0.0 0.0 -1.0
  outer loop
    vertex 11.0 0.0 0.0
    vertex 7.999999999999999 3.0 0.0
    vertex 11.0 20.0 0.0
  endloop
endfacet
facet normal -0.0 -0.0 1.0
  outer loop
    vertex 11.0 0.0 7.999999999999999
    vertex 0.0 3.0 7.999999999999999
    vertex 0.0 0.0 7.999999999999999
  endloop
endfacet
facet normal -0.0 -0.0 1.0
  outer loop
    vertex 0.0 3.0 7.999999999999999
    vertex 11.0 0.0 7.999999999999999
    vertex 7.999999999999999 3.0 7.999999999999999
  endloop
endfacet
facet normal -0.0 -0.0 1.0
  outer loop
    vertex 7.999999999999999 3.0 7.999999999999999
    vertex 11.0 0.0 7.999999999999999
    vertex 7.999999999999999 20.0 7.999999999999999
  endloop
endfacet
facet normal -0.0 -0.0 1.0
  outer loop
    vertex 7.999999999999999 20.0 7.999999999999999
    vertex 11.0 0.0 7.999999999999999
    vertex 11.0 20.0 7.999999999999999
  endloop
endfacet
facet normal -0.0 -0.0 1.0
  outer loop
    vertex 7.999999999999999 20.0 7.999999999999999
    vertex 11.0 20.0 7.999999999999999
    vertex 15.875000000000005 35.0 7.999999999999999
  endloop
endfacet
facet normal -0.0 -0.0 1.0
  outer loop
    vertex 15.875000000000005 35.0 7.999999999999999
    vertex 11.0 20.0 7.999999999999999
    vertex 18.84248689812448 35.00000000000001 7.999999999999999
  endloop
endfacet
facet normal -0.0 1.0 0.0
  outer loop
    vertex 0.0 3.0 0.0
    vertex 3.0000000000000004 3.0 2.2679491924311224
    vertex 7.999999999999999 3.0 0.0
  endloop
endfacet
facet normal -0.0 1.0 0.0
  outer loop
    vertex 3.0000000000000004 3.0 2.2679491924311224
    vertex 0.0 3.0 0.0
    vertex 2.585786437626905 3.0 2.5857864376269046
  endloop
endfacet
facet normal -0.0 1.0 0.0
  outer loop
    vertex 2.585786437626905 3.0 2.5857864376269046
    vertex 0.0 3.0 0.0
    vertex 2.2679491924311233 3.0 2.999999999999999
  endloop
endfacet
facet normal -0.0 1.0 0.0
  outer loop
    vertex 2.2679491924311233 3.0 2.999999999999999
    vertex 0.0 3.0 0.0
    vertex 0.0 3.0 7.999999999999999
  endloop
endfacet
facet normal -0.0 1.0 0.0
  outer loop
    vertex 7.999999999999999 3.0 0.0
    vertex 3.0000000000000004 3.0 2.2679491924311224
    vertex 3.4823619097949585 3.0 2.068148347421863
  endloop
endfacet
facet normal -0.0 1.0 0.0
  outer loop
    vertex 7.999999999999999 3.0 0.0
    vertex 3.4823619097949585 3.0 2.068148347421863
    vertex 3.9999999999999996 3.0 1.9999999999999998
  endloop
endfacet
facet normal -0.0 1.0 0.0
  outer loop
    vertex 2.2679491924311233 3.0 2.999999999999999
    vertex 0.0 3.0 7.999999999999999
    vertex 2.0681483474218636 3.0 3.4823619097949576
  endloop
endfacet
facet normal -0.0 1.0 0.0
  outer loop
    vertex 2.0681483474218636 3.0 3.4823619097949576
    vertex 0.0 3.0 7.999999999999999
    vertex 2.0 3.0 3.9999999999999996
  endloop
endfacet
facet normal -0.0 1.0 0.0
  outer loop
    vertex 2.0 3.0 3.9999999999999996
    vertex 0.0 3.0 7.999999999999999
    vertex 2.068148347421863 3.0 4.517638090205041
  endloop
endfacet
facet normal -0.0 1.0 0.0
  outer loop
    vertex 2.068148347421863 3.0 4.517638090205041
    vertex 0.0 3.0 7.999999999999999
    vertex 2.2679491924311224 3.0 4.999999999999999
  endloop
endfacet
facet normal -0.0 1.0 0.0
  outer loop
    vertex 2.2679491924311224 3.0 4.999999999999999
    vertex 0.0 3.0 7.999999999999999
    vertex 2.5857864376269037 3.0 5.414213562373094
  endloop
endfacet
facet normal -0.0 1.0 0.0
  outer loop
    vertex 2.5857864376269037 3.0 5.414213562373094
    vertex 0.0 3.0 7.999999999999999
    vertex 2.999999999999999 3.0 5.732050807568877
  endloop
endfacet
facet normal -0.0 1.0 0.0
  outer loop
    vertex 2.999999999999999 3.0 5.732050807568877
    vertex 0.0 3.0 7.999999999999999
    vertex 3.482361909794957 3.0 5.9318516525781355
  endloop
endfacet
facet normal -0.0 1.0 0.0
  outer loop
    vertex 3.482361909794957 3.0 5.9318516525781355
    vertex 0.0 3.0 7.999999999999999
    vertex 3.999999999999999 3.0 6.0
  endloop
endfacet
facet normal -0.0 1.0 0.0
  outer loop
    vertex 7.999999999999999 3.0 0.0
    vertex 5.732050807568877 3.0 3.0
    vertex 7.999999999999999 3.0 7.999999999999999
  endloop
endfacet
facet normal -0.0 1.0 0.0
  outer loop
    vertex 5.732050807568877 3.0 3.0
    vertex 7.999999999999999 3.0 0.0
    vertex 5.414213562373095 3.0 2.5857864376269046
  endloop
endfacet
facet normal -0.0 1.0 0.0
  outer loop
    vertex 5.414213562373095 3.0 2.5857864376269046
    vertex 7.999999999999999 3.0 0.0
    vertex 4.999999999999999 3.0 2.267949192431123
  endloop
endfacet
facet normal -0.0 1.0 0.0
  outer loop
    vertex 4.999999999999999 3.0 2.267949192431123
    vertex 7.999999999999999 3.0 0.0
    vertex 4.5176380902050415 3.0 2.068148347421863
  endloop
endfacet
facet normal -0.0 1.0 0.0
  outer loop
    vertex 4.5176380902050415 3.0 2.068148347421863
    vertex 7.999999999999999 3.0 0.0
    vertex 3.9999999999999996 3.0 1.9999999999999998
  endloop
endfacet
facet normal -0.0 1.0 0.0
  outer loop
    vertex 7.999999999999999 3.0 7.999999999999999
    vertex 5.732050807568877 3.0 3.0
    vertex 5.9318516525781355 3.0 3.4823619097949585
  endloop
endfacet
facet normal -0.0 1.0 0.0
  outer loop
    vertex 7.999999999999999 3.0 7.999999999999999
    vertex 5.9318516525781355 3.0 3.4823619097949585
    vertex 5.999999999999999 3.0 3.9999999999999996
  endloop
endfacet
facet normal -0.0 1.0 0.0
  outer loop
    vertex 7.999999999999999 3.0 7.999999999999999
    vertex 5.999999999999999 3.0 3.9999999999999996
    vertex 5.9318516525781355 3.0 4.517638090205042
  endloop
endfacet
facet normal -0.0 1.0 0.0
  outer loop
    vertex 7.999999999999999 3.0 7.999999999999999
    vertex 5.9318516525781355 3.0 4.517638090205042
    vertex 5.732050807568876 3.0 5.000000000000001
  endloop
endfacet
facet normal -0.0 1.0 0.0
  outer loop
    vertex 7.999999999999999 3.0 7.999999999999999
    vertex 5.732050807568876 3.0 5.000000000000001
    vertex 5.414213562373094 3.0 5.414213562373095
  endloop
endfacet
facet normal -0.0 1.0 0.0
  outer loop
    vertex 7.999999999999999 3.0 7.999999999999999
    vertex 5.414213562373094 3.0 5.414213562373095
    vertex 4.999999999999998 3.0 5.732050807568878
  endloop
endfacet
facet normal -0.0 1.0 0.0
  outer loop
    vertex 7.999999999999999 3.0 7.999999999999999
    vertex 4.999999999999998 3.0 5.732050807568878
    vertex 4.517638090205041 3.0 5.931851652578136
  endloop
endfacet
facet normal -0.0 1.0 0.0
  outer loop
    vertex 7.999999999999999 3.0 7.999999999999999
    vertex 4.517638090205041 3.0 5.931851652578136
    vertex 3.999999999999999 3.0 6.0
  endloop
endfacet
facet normal -0.0 1.0 0.0
  outer loop
    vertex 7.999999999999999 3.0 7.999999999999999
    vertex 3.999999999999999 3.0 6.0
    vertex 0.0 3.0 7.999999999999999
  endloop
endfacet
facet normal -1.0 0.0 0.0
  outer loop
    vertex 7.999999999999999 20.0 7.999999999999999
    vertex 7.999999999999999 3.0 0.0
    vertex 7.999999999999999 3.0 7.999999999999999
  endloop
endfacet
facet normal -1.0 0.0 0.0
  outer loop
    vertex 7.999999999999999 3.0 0.0
    vertex 7.999999999999999 20.0 7.999999999999999
    vertex 7.999999999999999 20.0 0.0
  endloop
endfacet
facet normal -0.8853979028379435 0.46483389898992056 0.0
  outer loop
    vertex 15.875000000000005 35.0 7.999999999999999
    vertex 7.999999999999999 20.0 0.0
    vertex 7.999999999999999 20.0 7.999999999999999
  endloop
endfacet
facet normal -0.8853979028379435 0.46483389898992056 0.0
  outer loop
    vertex 7.999999999999999 20.0 0.0
    vertex 15.875000000000005 35.0 7.999999999999999
    vertex 15.875000000000005 35.0 0.0
  endloop
endfacet
facet normal -1.9005755235719387e-15 1.0 0.0
  outer loop
    vertex 15.875000000000005 35.0 7.999999999999999
    vertex 18.84248689812448 35.00000000000001 0.0
    vertex 15.875000000000005 35.0 0.0
  endloop
endfacet
facet normal -1.9005755235719387e-15 1.0 0.0
  outer loop
    vertex 18.84248689812448 35.00000000000001 0.0
    vertex 15.875000000000005 35.0 7.999999999999999
    vertex 18.84248689812448 35.00000000000001 7.999999999999999
  endloop
endfacet
facet normal 0.8861871715314042 -0.4633274188014017 0.0
  outer loop
    vertex 18.84248689812448 35.00000000000001 0.0
    vertex 11.0 20.0 7.999999999999999
    vertex 11.0 20.0 0.0
  endloop
endfacet
facet normal 0.8861871715314042 -0.4633274188014017 0.0
  outer loop
    vertex 11.0 20.0 7.999999999999999
    vertex 18.84248689812448 35.00000000000001 0.0
    vertex 18.84248689812448 35.00000000000001 7.999999999999999
  endloop
endfacet
facet normal 1.0 0.0 0.0
  outer loop
    vertex 11.0 20.0 0.0
    vertex 11.0 0.0 7.999999999999999
    vertex 11.0 0.0 0.0
  endloop
endfacet
facet normal 1.0 0.0 0.0
  outer loop
    vertex 11.0 0.0 7.999999999999999
    vertex 11.0 20.0 0.0
    vertex 11.0 20.0 7.999999999999999
  endloop
endfacet
facet normal 0.0 -1.0 0.0
  outer loop
    vertex 11.0 0.0 0.0
    vertex 4.999999999999999 7.049916206369744e-16 2.267949192431123
    vertex 0.0 0.0 0.0
  endloop
endfacet
facet normal 0.0 -1.0 0.0
  outer loop
    vertex 4.999999999999999 7.049916206369744e-16 2.267949192431123
    vertex 11.0 0.0 0.0
    vertex 5.414213562373095 7.049916206369744e-16 2.5857864376269046
  endloop
endfacet
facet normal 0.0 -1.0 0.0
  outer loop
    vertex 5.414213562373095 7.049916206369744e-16 2.5857864376269046
    vertex 11.0 0.0 0.0
    vertex 11.0 0.0 7.999999999999999
  endloop
endfacet
facet normal 0.0 -1.0 0.0
  outer loop
    vertex 0.0 0.0 0.0
    vertex 4.999999999999999 7.049916206369744e-16 2.267949192431123
    vertex 4.5176380902050415 7.049916206369744e-16 2.068148347421863
  endloop
endfacet
facet normal 0.0 -1.0 0.0
  outer loop
    vertex 0.0 0.0 0.0
    vertex 4.5176380902050415 7.049916206369744e-16 2.068148347421863
    vertex 3.9999999999999996 7.049916206369744e-16 1.9999999999999998
  endloop
endfacet
facet normal 0.0 -1.0 0.0
  outer loop
    vertex 5.414213562373095 7.049916206369744e-16 2.5857864376269046
    vertex 11.0 0.0 7.999999999999999
    vertex 5.732050807568877 7.049916206369744e-16 3.0
  endloop
endfacet
facet normal 0.0 -1.0 0.0
  outer loop
    vertex 5.732050807568877 7.049916206369744e-16 3.0
    vertex 11.0 0.0 7.999999999999999
    vertex 5.9318516525781355 7.049916206369744e-16 3.4823619097949585
  endloop
endfacet
facet normal 0.0 -1.0 0.0
  outer loop
    vertex 5.9318516525781355 7.049916206369744e-16 3.4823619097949585
    vertex 11.0 0.0 7.999999999999999
    vertex 5.999999999999999 7.049916206369744e-16 3.9999999999999996
  endloop
endfacet
facet normal 0.0 -1.0 0.0
  outer loop
    vertex 5.999999999999999 7.049916206369744e-16 3.9999999999999996
    vertex 11.0 0.0 7.999999999999999
    vertex 5.9318516525781355 7.049916206369744e-16 4.517638090205042
  endloop
endfacet
facet normal 0.0 -1.0 0.0
  outer loop
    vertex 5.9318516525781355 7.049916206369744e-16 4.517638090205042
    vertex 11.0 0.0 7.999999999999999
    vertex 5.732050807568876 7.049916206369744e-16 5.000000000000001
  endloop
endfacet
facet normal 0.0 -1.0 0.0
  outer loop
    vertex 5.732050807568876 7.049916206369744e-16 5.000000000000001
    vertex 11.0 0.0 7.999999999999999
    vertex 5.414213562373094 7.049916206369744e-16 5.414213562373095
  endloop
endfacet
facet normal 0.0 -1.0 0.0
  outer loop
    vertex 5.414213562373094 7.049916206369744e-16 5.414213562373095
    vertex 11.0 0.0 7.999999999999999
    vertex 4.999999999999998 7.049916206369744e-16 5.732050807568878
  endloop
endfacet
facet normal 0.0 -1.0 0.0
  outer loop
    vertex 4.999999999999998 7.049916206369744e-16 5.732050807568878
    vertex 11.0 0.0 7.999999999999999
    vertex 4.517638090205041 7.049916206369744e-16 5.931851652578136
  endloop
endfacet
facet normal 0.0 -1.0 0.0
  outer loop
    vertex 4.517638090205041 7.049916206369744e-16 5.931851652578136
    vertex 11.0 0.0 7.999999999999999
    vertex 3.999999999999999 7.049916206369744e-16 6.0
  endloop
endfacet
facet normal 0.0 -1.0 0.0
  outer loop
    vertex 0.0 0.0 0.0
    vertex 2.2679491924311233 7.049916206369744e-16 2.999999999999999
    vertex 0.0 0.0 7.999999999999999
  endloop
endfacet
facet normal 0.0 -1.0 0.0
  outer loop
    vertex 2.2679491924311233 7.049916206369744e-16 2.999999999999999
    vertex 0.0 0.0 0.0
    vertex 2.585786437626905 7.049916206369744e-16 2.5857864376269046
  endloop
endfacet
facet normal 0.0 -1.0 0.0
  outer loop
    vertex 2.585786437626905 7.049916206369744e-16 2.5857864376269046
    vertex 0.0 0.0 0.0
    vertex 3.0000000000000004 7.049916206369744e-16 2.2679491924311224
  endloop
endfacet
facet normal 0.0 -1.0 0.0
  outer loop
    vertex 3.0000000000000004 7.049916206369744e-16 2.2679491924311224
    vertex 0.0 0.0 0.0
    vertex 3.4823619097949585 7.049916206369744e-16 2.068148347421863
  endloop
endfacet
facet normal 0.0 -1.0 0.0
  outer loop
    vertex 3.4823619097949585 7.049916206369744e-16 2.068148347421863
    vertex 0.0 0.0 0.0
    vertex 3.9999999999999996 7.049916206369744e-16 1.9999999999999998
  endloop
endfacet
facet normal 0.0 -1.0 0.0
  outer loop
    vertex 0.0 0.0 7.999999999999999
    vertex 2.2679491924311233 7.049916206369744e-16 2.999999999999999
    vertex 2.0681483474218636 7.049916206369744e-16 3.4823619097949576
  endloop
endfacet
facet normal 0.0 -1.0 0.0
  outer loop
    vertex 0.0 0.0 7.999999999999999
    vertex 2.0681483474218636 7.049916206369744e-16 3.4823619097949576
    vertex 2.0 7.049916206369744e-16 3.9999999999999996
  endloop
endfacet
facet normal 0.0 -1.0 0.0
  outer loop
    vertex 0.0 0.0 7.999999999999999
    vertex 2.0 7.049916206369744e-16 3.9999999999999996
    vertex 2.068148347421863 7.049916206369744e-16 4.517638090205041
  endloop
endfacet
facet normal 0.0 -1.0 0.0
  outer loop
    vertex 0.0 0.0 7.999999999999999
    vertex 2.068148347421863 7.049916206369744e-16 4.517638090205041
    vertex 2.2679491924311224 7.049916206369744e-16 4.999999999999999
  endloop
endfacet
facet normal 0.0 -1.0 0.0
  outer loop
    vertex 0.0 0.0 7.999999999999999
    vertex 2.2679491924311224 7.049916206369744e-16 4.999999999999999
    vertex 2.5857864376269037 7.049916206369744e-16 5.414213562373094
  endloop
endfacet
facet normal 0.0 -1.0 0.0
  outer loop
    vertex 0.0 0.0 7.999999999999999
    vertex 2.5857864376269037 7.049916206369744e-16 5.414213562373094
    vertex 2.999999999999999 7.049916206369744e-16 5.732050807568877
  endloop
endfacet
facet normal 0.0 -1.0 0.0
  outer loop
    vertex 0.0 0.0 7.999999999999999
    vertex 2.999999999999999 7.049916206369744e-16 5.732050807568877
    vertex 3.482361909794957 7.049916206369744e-16 5.9318516525781355
  endloop
endfacet
facet normal 0.0 -1.0 0.0
  outer loop
    vertex 0.0 0.0 7.999999999999999
    vertex 3.482361909794957 7.049916206369744e-16 5.9318516525781355
    vertex 3.999999999999999 7.049916206369744e-16 6.0
  endloop
endfacet
facet normal 0.0 -1.0 0.0
  outer loop
    vertex 0.0 0.0 7.999999999999999
    vertex 3.999999999999999 7.049916206369744e-16 6.0
    vertex 11.0 0.0 7.999999999999999
  endloop
endfacet
facet normal -1.0 0.0 0.0
  outer loop
    vertex 0.0 3.0 7.999999999999999
    vertex 0.0 0.0 0.0
    vertex 0.0 0.0 7.999999999999999
  endloop
endfacet
facet normal -1.0 0.0 0.0
  outer loop
    vertex 0.0 0.0 0.0
    vertex 0.0 3.0 7.999999999999999
    vertex 0.0 3.0 0.0
  endloop
endfacet
facet normal 0.9914448613738104 -5.889209445280756e-32 -0.1305261922200518
  outer loop
    vertex 5.9318516525781355 3.0 3.4823619097949585
    vertex 5.999999999999999 7.049916206369744e-16 3.9999999999999996
    vertex 5.9318516525781355 7.049916206369744e-16 3.4823619097949585
  endloop
endfacet
facet normal 0.9914448613738104 -5.889209445280756e-32 -0.1305261922200518
  outer loop
    vertex 5.999999999999999 7.049916206369744e-16 3.9999999999999996
    vertex 5.9318516525781355 3.0 3.4823619097949585
    vertex 5.999999999999999 3.0 3.9999999999999996
  endloop
endfacet
facet normal 0.9238795325112871 -4.947259232770449e-32 -0.38268343236508895
  outer loop
    vertex 5.732050807568877 3.0 3.0
    vertex 5.9318516525781355 7.049916206369744e-16 3.4823619097949585
    vertex 5.732050807568877 7.049916206369744e-16 3.0
  endloop
endfacet
facet normal 0.9238795325112871 -4.947259232770449e-32 -0.38268343236508895
  outer loop
    vertex 5.9318516525781355 7.049916206369744e-16 3.4823619097949585
    vertex 5.732050807568877 3.0 3.0
    vertex 5.9318516525781355 3.0 3.4823619097949585
  endloop
endfacet
facet normal 0.7933533402912359 -3.668161479279278e-32 -0.6087614290087199
  outer loop
    vertex 5.414213562373095 3.0 2.5857864376269046
    vertex 5.732050807568877 7.049916206369744e-16 3.0
    vertex 5.414213562373095 7.049916206369744e-16 2.5857864376269046
  endloop
endfacet
facet normal 0.7933533402912359 -3.668161479279278e-32 -0.6087614290087199
  outer loop
    vertex 5.732050807568877 7.049916206369744e-16 3.0
    vertex 5.414213562373095 3.0 2.5857864376269046
    vertex 5.732050807568877 3.0 3.0
  endloop
endfacet
facet normal 0.6087614290087199 -2.1390845828986726e-32 -0.7933533402912359
  outer loop
    vertex 5.414213562373095 3.0 2.5857864376269046
    vertex 4.999999999999999 7.049916206369744e-16 2.267949192431123
    vertex 4.999999999999999 3.0 2.267949192431123
  endloop
endfacet
facet normal 0.6087614290087199 -2.1390845828986726e-32 -0.7933533402912359
  outer loop
    vertex 4.999999999999999 7.049916206369744e-16 2.267949192431123
    vertex 5.414213562373095 3.0 2.5857864376269046
    vertex 5.414213562373095 7.049916206369744e-16 2.5857864376269046
  endloop
endfacet
facet normal 0.3826834323650906 -4.6423260719796086e-33 -0.9238795325112864
  outer loop
    vertex 4.999999999999999 3.0 2.267949192431123
    vertex 4.5176380902050415 7.049916206369744e-16 2.068148347421863
    vertex 4.5176380902050415 3.0 2.068148347421863
  endloop
endfacet
facet normal 0.3826834323650906 -4.6423260719796086e-33 -0.9238795325112864
  outer loop
    vertex 4.5176380902050415 7.049916206369744e-16 2.068148347421863
    vertex 4.999999999999999 3.0 2.267949192431123
    vertex 4.999999999999999 7.049916206369744e-16 2.267949192431123
  endloop
endfacet
facet normal 0.13052619222005163 1.2422560535026533e-32 -0.9914448613738104
  outer loop
    vertex 4.5176380902050415 3.0 2.068148347421863
    vertex 3.9999999999999996 7.049916206369744e-16 1.9999999999999998
    vertex 3.9999999999999996 3.0 1.9999999999999998
  endloop
endfacet
facet normal 0.13052619222005163 1.2422560535026533e-32 -0.9914448613738104
  outer loop
    vertex 3.9999999999999996 7.049916206369744e-16 1.9999999999999998
    vertex 4.5176380902050415 3.0 2.068148347421863
    vertex 4.5176380902050415 7.049916206369744e-16 2.068148347421863
  endloop
endfacet
facet normal -0.1305261922200518 2.864087017082251e-32 -0.9914448613738104
  outer loop
    vertex 3.9999999999999996 3.0 1.9999999999999998
    vertex 3.4823619097949585 7.049916206369744e-16 2.068148347421863
    vertex 3.4823619097949585 3.0 2.068148347421863
  endloop
endfacet
facet normal -0.1305261922200518 2.864087017082251e-32 -0.9914448613738104
  outer loop
    vertex 3.4823619097949585 7.049916206369744e-16 2.068148347421863
    vertex 3.9999999999999996 3.0 1.9999999999999998
    vertex 3.9999999999999996 7.049916206369744e-16 1.9999999999999998
  endloop
endfacet
facet normal -0.3826834323650898 4.290735183575277e-32 -0.9238795325112867
  outer loop
    vertex 3.4823619097949585 3.0 2.068148347421863
    vertex 3.0000000000000004 7.049916206369744e-16 2.2679491924311224
    vertex 3.0000000000000004 3.0 2.2679491924311224
  endloop
endfacet
facet normal -0.3826834323650898 4.290735183575277e-32 -0.9238795325112867
  outer loop
    vertex 3.0000000000000004 7.049916206369744e-16 2.2679491924311224
    vertex 3.4823619097949585 3.0 2.068148347421863
    vertex 3.4823619097949585 7.049916206369744e-16 2.068148347421863
  endloop
endfacet
facet normal -0.6087614290087202 5.4249768380828e-32 -0.7933533402912355
  outer loop
    vertex 3.0000000000000004 3.0 2.2679491924311224
    vertex 2.585786437626905 7.049916206369744e-16 2.5857864376269046
    vertex 2.585786437626905 3.0 2.5857864376269046
  endloop
endfacet
facet normal -0.6087614290087202 5.4249768380828e-32 -0.7933533402912355
  outer loop
    vertex 2.585786437626905 7.049916206369744e-16 2.5857864376269046
    vertex 3.0000000000000004 3.0 2.2679491924311224
    vertex 3.0000000000000004 7.049916206369744e-16 2.2679491924311224
  endloop
endfacet
facet normal -0.793353340291235 6.1895152862731e-32 -0.6087614290087208
  outer loop
    vertex 2.2679491924311233 3.0 2.999999999999999
    vertex 2.585786437626905 7.049916206369744e-16 2.5857864376269046
    vertex 2.2679491924311233 7.049916206369744e-16 2.999999999999999
  endloop
endfacet
facet normal -0.793353340291235 6.1895152862731e-32 -0.6087614290087208
  outer loop
    vertex 2.585786437626905 7.049916206369744e-16 2.5857864376269046
    vertex 2.2679491924311233 3.0 2.999999999999999
    vertex 2.585786437626905 3.0 2.5857864376269046
  endloop
endfacet
facet normal -0.9238795325112867 6.532248496361523e-32 -0.3826834323650899
  outer loop
    vertex 2.0681483474218636 3.0 3.4823619097949576
    vertex 2.2679491924311233 7.049916206369744e-16 2.999999999999999
    vertex 2.0681483474218636 7.049916206369744e-16 3.4823619097949576
  endloop
endfacet
facet normal -0.9238795325112867 6.532248496361523e-32 -0.3826834323650899
  outer loop
    vertex 2.2679491924311233 7.049916206369744e-16 2.999999999999999
    vertex 2.0681483474218636 3.0 3.4823619097949576
    vertex 2.2679491924311233 3.0 2.999999999999999
  endloop
endfacet
facet normal -0.9914448613738104 6.429819766473956e-32 -0.13052619222005163
  outer loop
    vertex 2.0 3.0 3.9999999999999996
    vertex 2.0681483474218636 7.049916206369744e-16 3.4823619097949576
    vertex 2.0 7.049916206369744e-16 3.9999999999999996
  endloop
endfacet
facet normal -0.9914448613738104 6.429819766473956e-32 -0.13052619222005163
  outer loop
    vertex 2.0681483474218636 7.049916206369744e-16 3.4823619097949576
    vertex 2.0 3.0 3.9999999999999996
    vertex 2.0681483474218636 3.0 3.4823619097949576
  endloop
endfacet
facet normal -0.9914448613738105 5.889209445280758e-32 0.1305261922200513
  outer loop
    vertex 2.068148347421863 3.0 4.517638090205041
    vertex 2.0 7.049916206369744e-16 3.9999999999999996
    vertex 2.068148347421863 7.049916206369744e-16 4.517638090205041
  endloop
endfacet
facet normal -0.9914448613738105 5.889209445280758e-32 0.1305261922200513
  outer loop
    vertex 2.0 7.049916206369744e-16 3.9999999999999996
    vertex 2.068148347421863 3.0 4.517638090205041
    vertex 2.0 3.0 3.9999999999999996
  endloop
endfacet
facet normal -0.9238795325112872 4.947259232770449e-32 0.38268343236508917
  outer loop
    vertex 2.2679491924311224 3.0 4.999999999999999
    vertex 2.068148347421863 7.049916206369744e-16 4.517638090205041
    vertex 2.2679491924311224 7.049916206369744e-16 4.999999999999999
  endloop
endfacet
facet normal -0.9238795325112872 4.947259232770449e-32 0.38268343236508917
  outer loop
    vertex 2.068148347421863 7.049916206369744e-16 4.517638090205041
    vertex 2.2679491924311224 3.0 4.999999999999999
    vertex 2.068148347421863 3.0 4.517638090205041
  endloop
endfacet
facet normal -0.7933533402912357 3.668161479279277e-32 0.6087614290087201
  outer loop
    vertex 2.5857864376269037 3.0 5.414213562373094
    vertex 2.2679491924311224 7.049916206369744e-16 4.999999999999999
    vertex 2.5857864376269037 7.049916206369744e-16 5.414213562373094
  endloop
endfacet
facet normal -0.7933533402912357 3.668161479279277e-32 0.6087614290087201
  outer loop
    vertex 2.2679491924311224 7.049916206369744e-16 4.999999999999999
    vertex 2.5857864376269037 3.0 5.414213562373094
    vertex 2.2679491924311224 3.0 4.999999999999999
  endloop
endfacet
facet normal -0.608761429008721 2.139084582898682e-32 0.7933533402912349
  outer loop
    vertex 2.999999999999999 7.049916206369744e-16 5.732050807568877
    vertex 2.5857864376269037 3.0 5.414213562373094
    vertex 2.5857864376269037 7.049916206369744e-16 5.414213562373094
  endloop
endfacet
facet normal -0.608761429008721 2.139084582898682e-32 0.7933533402912349
  outer loop
    vertex 2.5857864376269037 3.0 5.414213562373094
    vertex 2.999999999999999 7.049916206369744e-16 5.732050807568877
    vertex 2.999999999999999 3.0 5.732050807568877
  endloop
endfacet
facet normal -0.3826834323650892 4.642326071979512e-33 0.923879532511287
  outer loop
    vertex 3.482361909794957 7.049916206369744e-16 5.9318516525781355
    vertex 2.999999999999999 3.0 5.732050807568877
    vertex 2.999999999999999 7.049916206369744e-16 5.732050807568877
  endloop
endfacet
facet normal -0.3826834323650892 4.642326071979512e-33 0.923879532511287
  outer loop
    vertex 2.999999999999999 3.0 5.732050807568877
    vertex 3.482361909794957 7.049916206369744e-16 5.9318516525781355
    vertex 3.482361909794957 3.0 5.9318516525781355
  endloop
endfacet
facet normal -0.13052619222005296 -1.2422560535026449e-32 0.9914448613738103
  outer loop
    vertex 3.999999999999999 7.049916206369744e-16 6.0
    vertex 3.482361909794957 3.0 5.9318516525781355
    vertex 3.482361909794957 7.049916206369744e-16 5.9318516525781355
  endloop
endfacet
facet normal -0.13052619222005296 -1.2422560535026449e-32 0.9914448613738103
  outer loop
    vertex 3.482361909794957 3.0 5.9318516525781355
    vertex 3.999999999999999 7.049916206369744e-16 6.0
    vertex 3.999999999999999 3.0 6.0
  endloop
endfacet
facet normal 0.1305261922200505 -2.8640870170822436e-32 0.9914448613738107
  outer loop
    vertex 4.517638090205041 7.049916206369744e-16 5.931851652578136
    vertex 3.999999999999999 3.0 6.0
    vertex 3.999999999999999 7.049916206369744e-16 6.0
  endloop
endfacet
facet normal 0.1305261922200505 -2.8640870170822436e-32 0.9914448613738107
  outer loop
    vertex 3.999999999999999 3.0 6.0
    vertex 4.517638090205041 7.049916206369744e-16 5.931851652578136
    vertex 4.517638090205041 3.0 5.931851652578136
  endloop
endfacet
facet normal 0.3826834323650895 -4.2907351835752756e-32 0.923879532511287
  outer loop
    vertex 4.999999999999998 7.049916206369744e-16 5.732050807568878
    vertex 4.517638090205041 3.0 5.931851652578136
    vertex 4.517638090205041 7.049916206369744e-16 5.931851652578136
  endloop
endfacet
facet normal 0.3826834323650895 -4.2907351835752756e-32 0.923879532511287
  outer loop
    vertex 4.517638090205041 3.0 5.931851652578136
    vertex 4.999999999999998 7.049916206369744e-16 5.732050807568878
    vertex 4.999999999999998 3.0 5.732050807568878
  endloop
endfacet
facet normal 0.6087614290087209 -5.424976838082803e-32 0.7933533402912352
  outer loop
    vertex 5.414213562373094 7.049916206369744e-16 5.414213562373095
    vertex 4.999999999999998 3.0 5.732050807568878
    vertex 4.999999999999998 7.049916206369744e-16 5.732050807568878
  endloop
endfacet
facet normal 0.6087614290087209 -5.424976838082803e-32 0.7933533402912352
  outer loop
    vertex 4.999999999999998 3.0 5.732050807568878
    vertex 5.414213562373094 7.049916206369744e-16 5.414213562373095
    vertex 5.414213562373094 3.0 5.414213562373095
  endloop
endfacet
facet normal 0.7933533402912349 -6.189515286273098e-32 0.6087614290087212
  outer loop
    vertex 5.732050807568876 3.0 5.000000000000001
    vertex 5.414213562373094 7.049916206369744e-16 5.414213562373095
    vertex 5.732050807568876 7.049916206369744e-16 5.000000000000001
  endloop
endfacet
facet normal 0.7933533402912349 -6.189515286273098e-32 0.6087614290087212
  outer loop
    vertex 5.414213562373094 7.049916206369744e-16 5.414213562373095
    vertex 5.732050807568876 3.0 5.000000000000001
    vertex 5.414213562373094 3.0 5.414213562373095
  endloop
endfacet
facet normal 0.9238795325112867 -6.532248496361523e-32 0.3826834323650902
  outer loop
    vertex 5.9318516525781355 3.0 4.517638090205042
    vertex 5.732050807568876 7.049916206369744e-16 5.000000000000001
    vertex 5.9318516525781355 7.049916206369744e-16 4.517638090205042
  endloop
endfacet
facet normal 0.9238795325112867 -6.532248496361523e-32 0.3826834323650902
  outer loop
    vertex 5.732050807568876 7.049916206369744e-16 5.000000000000001
    vertex 5.9318516525781355 3.0 4.517638090205042
    vertex 5.732050807568876 3.0 5.000000000000001
  endloop
endfacet
facet normal 0.9914448613738105 -6.429819766473955e-32 0.13052619222005143
  outer loop
    vertex 5.999999999999999 3.0 3.9999999999999996
    vertex 5.9318516525781355 7.049916206369744e-16 4.517638090205042
    vertex 5.999999999999999 7.049916206369744e-16 3.9999999999999996
  endloop
endfacet
facet normal 0.9914448613738105 -6.429819766473955e-32 0.13052619222005143
  outer loop
    vertex 5.9318516525781355 7.049916206369744e-16 4.517638090205042
    vertex 5.999999999999999 3.0 3.9999999999999996
    vertex 5.9318516525781355 3.0 4.517638090205042
  endloop
endfacet
endsolid Funnel-Brackets-2LiterPop
