solid StandCrossMember
facet normal 0.0 0.0 -1.0
  outer loop
    vertex 6.0 30.0 5.0
    vertex 7.5 28.500000000000004 5.0
    vertex 6.0 0.0 5.0
  endloop
endfacet
facet normal 0.0 0.0 -1.0
  outer loop
    vertex 7.5 28.500000000000004 5.0
    vertex 6.0 30.0 5.0
    vertex 187.00000000000003 30.0 5.0
  endloop
endfacet
facet normal 0.0 0.0 -1.0
  outer loop
    vertex 7.5 28.500000000000004 5.0
    vertex 187.00000000000003 30.0 5.0
    vertex 185.50000000000003 28.500000000000004 5.0
  endloop
endfacet
facet normal 0.0 0.0 -1.0
  outer loop
    vertex 185.50000000000003 28.500000000000004 5.0
    vertex 187.00000000000003 30.0 5.0
    vertex 185.50000000000003 1.5 5.0
  endloop
endfacet
facet normal 0.0 0.0 -1.0
  outer loop
    vertex 6.0 0.0 5.0
    vertex 7.5 1.5 5.0
    vertex 187.00000000000003 0.0 5.0
  endloop
endfacet
facet normal 0.0 0.0 -1.0
  outer loop
    vertex 7.5 1.5 5.0
    vertex 6.0 0.0 5.0
    vertex 7.5 28.500000000000004 5.0
  endloop
endfacet
facet normal 0.0 0.0 -1.0
  outer loop
    vertex 187.00000000000003 0.0 5.0
    vertex 7.5 1.5 5.0
    vertex 185.50000000000003 1.5 5.0
  endloop
endfacet
facet normal 0.0 0.0 -1.0
  outer loop
    vertex 187.00000000000003 0.0 5.0
    vertex 185.50000000000003 1.5 5.0
    vertex 187.00000000000003 30.0 5.0
  endloop
endfacet
facet normal 0.0 -1.0 -0.0
  outer loop
    vertex 187.00000000000003 30.0 1.9999999999999998
    vertex 6.0 30.0 0.0
    vertex 187.00000000000003 30.0 0.0
  endloop
endfacet
facet normal 0.0 -1.0 -0.0
  outer loop
    vertex 6.0 30.0 0.0
    vertex 187.00000000000003 30.0 1.9999999999999998
    vertex 6.0 30.0 1.9999999999999998
  endloop
endfacet
facet normal 0.0 -1.0 -0.0
  outer loop
    vertex 6.0 30.0 1.9999999999999998
    vertex 187.00000000000003 30.0 1.9999999999999998
    vertex 187.00000000000003 30.0 5.0
  endloop
endfacet
facet normal 0.0 -1.0 -0.0
  outer loop
    vertex 6.0 30.0 1.9999999999999998
    vertex 187.00000000000003 30.0 5.0
    vertex 6.0 30.0 5.0
  endloop
endfacet
facet normal -1.0 -0.0 -0.0
  outer loop
    vertex 187.00000000000003 30.0 5.0
    vertex 187.00000000000003 0.0 1.9999999999999998
    vertex 187.00000000000003 0.0 5.0
  endloop
endfacet
facet normal -1.0 -0.0 -0.0
  outer loop
    vertex 187.00000000000003 0.0 1.9999999999999998
    vertex 187.00000000000003 30.0 5.0
    vertex 187.00000000000003 30.0 1.9999999999999998
  endloop
endfacet
facet normal 0.0 1.0 0.0
  outer loop
    vertex 6.0 0.0 1.9999999999999998
    vertex 187.00000000000003 0.0 0.0
    vertex 6.0 0.0 0.0
  endloop
endfacet
facet normal 0.0 1.0 0.0
  outer loop
    vertex 187.00000000000003 0.0 0.0
    vertex 6.0 0.0 1.9999999999999998
    vertex 187.00000000000003 0.0 1.9999999999999998
  endloop
endfacet
facet normal 0.0 1.0 0.0
  outer loop
    vertex 187.00000000000003 0.0 1.9999999999999998
    vertex 6.0 0.0 1.9999999999999998
    vertex 6.0 0.0 5.0
  endloop
endfacet
facet normal 0.0 1.0 0.0
  outer loop
    vertex 187.00000000000003 0.0 1.9999999999999998
    vertex 6.0 0.0 5.0
    vertex 187.00000000000003 0.0 5.0
  endloop
endfacet
facet normal 1.0 -0.0 -0.0
  outer loop
    vertex 6.0 30.0 1.9999999999999998
    vertex 6.0 0.0 5.0
    vertex 6.0 0.0 1.9999999999999998
  endloop
endfacet
facet normal 1.0 -0.0 -0.0
  outer loop
    vertex 6.0 0.0 5.0
    vertex 6.0 30.0 1.9999999999999998
    vertex 6.0 30.0 5.0
  endloop
endfacet
facet normal 0.0 0.0 -1.0
  outer loop
    vertex 0.0 30.0 1.9999999999999998
    vertex 1.2000000000000006 21.0 1.9999999999999998
    vertex 0.0 0.0 1.9999999999999998
  endloop
endfacet
facet normal 0.0 0.0 -1.0
  outer loop
    vertex 1.2000000000000006 21.0 1.9999999999999998
    vertex 0.0 30.0 1.9999999999999998
    vertex 1.2613335126796779 21.46587428118454 1.9999999999999998
  endloop
endfacet
facet normal 0.0 0.0 -1.0
  outer loop
    vertex 1.2613335126796779 21.46587428118454 1.9999999999999998
    vertex 0.0 30.0 1.9999999999999998
    vertex 1.4411542731880111 21.900000000000002 1.9999999999999998
  endloop
endfacet
facet normal 0.0 0.0 -1.0
  outer loop
    vertex 1.4411542731880111 21.900000000000002 1.9999999999999998
    vertex 0.0 30.0 1.9999999999999998
    vertex 6.0 30.0 1.9999999999999998
  endloop
endfacet
facet normal 0.0 0.0 -1.0
  outer loop
    vertex 1.4411542731880111 21.900000000000002 1.9999999999999998
    vertex 6.0 30.0 1.9999999999999998
    vertex 1.7272077938642152 22.272792206135787 1.9999999999999998
  endloop
endfacet
facet normal 0.0 0.0 -1.0
  outer loop
    vertex 1.7272077938642152 22.272792206135787 1.9999999999999998
    vertex 6.0 30.0 1.9999999999999998
    vertex 2.1000000000000005 22.55884572681199 1.9999999999999998
  endloop
endfacet
facet normal 0.0 0.0 -1.0
  outer loop
    vertex 2.1000000000000005 22.55884572681199 1.9999999999999998
    vertex 6.0 30.0 1.9999999999999998
    vertex 2.534125718815463 22.738666487320323 1.9999999999999998
  endloop
endfacet
facet normal 0.0 0.0 -1.0
  outer loop
    vertex 2.534125718815463 22.738666487320323 1.9999999999999998
    vertex 6.0 30.0 1.9999999999999998
    vertex 3.0 22.8 1.9999999999999998
  endloop
endfacet
facet normal 0.0 0.0 -1.0
  outer loop
    vertex 3.0 22.8 1.9999999999999998
    vertex 6.0 30.0 1.9999999999999998
    vertex 3.4658742811845373 22.738666487320323 1.9999999999999998
  endloop
endfacet
facet normal 0.0 0.0 -1.0
  outer loop
    vertex 3.4658742811845373 22.738666487320323 1.9999999999999998
    vertex 6.0 30.0 1.9999999999999998
    vertex 3.9 22.55884572681199 1.9999999999999998
  endloop
endfacet
facet normal 0.0 0.0 -1.0
  outer loop
    vertex 3.9 22.55884572681199 1.9999999999999998
    vertex 6.0 30.0 1.9999999999999998
    vertex 4.272792206135786 22.272792206135787 1.9999999999999998
  endloop
endfacet
facet normal 0.0 0.0 -1.0
  outer loop
    vertex 4.272792206135786 22.272792206135787 1.9999999999999998
    vertex 6.0 30.0 1.9999999999999998
    vertex 4.558845726811989 21.9 1.9999999999999998
  endloop
endfacet
facet normal 0.0 0.0 -1.0
  outer loop
    vertex 4.558845726811989 21.9 1.9999999999999998
    vertex 6.0 30.0 1.9999999999999998
    vertex 4.738666487320323 21.465874281184536 1.9999999999999998
  endloop
endfacet
facet normal 0.0 0.0 -1.0
  outer loop
    vertex 4.738666487320323 21.465874281184536 1.9999999999999998
    vertex 6.0 30.0 1.9999999999999998
    vertex 4.8 21.0 1.9999999999999998
  endloop
endfacet
facet normal 0.0 0.0 -1.0
  outer loop
    vertex 4.8 21.0 1.9999999999999998
    vertex 6.0 30.0 1.9999999999999998
    vertex 4.8 7.0 1.9999999999999998
  endloop
endfacet
facet normal 0.0 0.0 -1.0
  outer loop
    vertex 0.0 0.0 1.9999999999999998
    vertex 1.4411542731880107 6.1000000000000005 1.9999999999999998
    vertex 6.0 0.0 1.9999999999999998
  endloop
endfacet
facet normal 0.0 0.0 -1.0
  outer loop
    vertex 1.4411542731880107 6.1000000000000005 1.9999999999999998
    vertex 0.0 0.0 1.9999999999999998
    vertex 1.2613335126796776 6.534125718815464 1.9999999999999998
  endloop
endfacet
facet normal 0.0 0.0 -1.0
  outer loop
    vertex 1.2613335126796776 6.534125718815464 1.9999999999999998
    vertex 0.0 0.0 1.9999999999999998
    vertex 1.2000000000000006 7.0 1.9999999999999998
  endloop
endfacet
facet normal 0.0 0.0 -1.0
  outer loop
    vertex 1.2000000000000006 7.0 1.9999999999999998
    vertex 0.0 0.0 1.9999999999999998
    vertex 1.2000000000000006 21.0 1.9999999999999998
  endloop
endfacet
facet normal 0.0 0.0 -1.0
  outer loop
    vertex 6.0 0.0 1.9999999999999998
    vertex 1.4411542731880107 6.1000000000000005 1.9999999999999998
    vertex 1.727207793864214 5.727207793864216 1.9999999999999998
  endloop
endfacet
facet normal 0.0 0.0 -1.0
  outer loop
    vertex 6.0 0.0 1.9999999999999998
    vertex 1.727207793864214 5.727207793864216 1.9999999999999998
    vertex 2.0999999999999996 5.441154273188011 1.9999999999999998
  endloop
endfacet
facet normal 0.0 0.0 -1.0
  outer loop
    vertex 6.0 0.0 1.9999999999999998
    vertex 2.0999999999999996 5.441154273188011 1.9999999999999998
    vertex 2.5341257188154613 5.261333512679678 1.9999999999999998
  endloop
endfacet
facet normal 0.0 0.0 -1.0
  outer loop
    vertex 6.0 0.0 1.9999999999999998
    vertex 2.5341257188154613 5.261333512679678 1.9999999999999998
    vertex 3.0 5.2 1.9999999999999998
  endloop
endfacet
facet normal 0.0 0.0 -1.0
  outer loop
    vertex 6.0 0.0 1.9999999999999998
    vertex 3.0 5.2 1.9999999999999998
    vertex 3.465874281184537 5.261333512679677 1.9999999999999998
  endloop
endfacet
facet normal 0.0 0.0 -1.0
  outer loop
    vertex 6.0 0.0 1.9999999999999998
    vertex 3.465874281184537 5.261333512679677 1.9999999999999998
    vertex 3.8999999999999986 5.44115427318801 1.9999999999999998
  endloop
endfacet
facet normal 0.0 0.0 -1.0
  outer loop
    vertex 6.0 0.0 1.9999999999999998
    vertex 3.8999999999999986 5.44115427318801 1.9999999999999998
    vertex 4.272792206135785 5.727207793864214 1.9999999999999998
  endloop
endfacet
facet normal 0.0 0.0 -1.0
  outer loop
    vertex 6.0 0.0 1.9999999999999998
    vertex 4.272792206135785 5.727207793864214 1.9999999999999998
    vertex 4.558845726811989 6.1 1.9999999999999998
  endloop
endfacet
facet normal 0.0 0.0 -1.0
  outer loop
    vertex 6.0 0.0 1.9999999999999998
    vertex 4.558845726811989 6.1 1.9999999999999998
    vertex 4.738666487320322 6.534125718815461 1.9999999999999998
  endloop
endfacet
facet normal 0.0 0.0 -1.0
  outer loop
    vertex 6.0 0.0 1.9999999999999998
    vertex 4.738666487320322 6.534125718815461 1.9999999999999998
    vertex 4.8 7.0 1.9999999999999998
  endloop
endfacet
facet normal 0.0 0.0 -1.0
  outer loop
    vertex 6.0 0.0 1.9999999999999998
    vertex 4.8 7.0 1.9999999999999998
    vertex 6.0 30.0 1.9999999999999998
  endloop
endfacet
facet normal 0.0 0.0 -1.0
  outer loop
    vertex 1.2613335126796776 20.534125718815464 1.9999999999999998
    vertex 1.2000000000000006 7.0 1.9999999999999998
    vertex 1.2000000000000006 21.0 1.9999999999999998
  endloop
endfacet
facet normal 0.0 0.0 -1.0
  outer loop
    vertex 1.2000000000000006 7.0 1.9999999999999998
    vertex 1.2613335126796776 20.534125718815464 1.9999999999999998
    vertex 1.2613335126796779 7.465874281184537 1.9999999999999998
  endloop
endfacet
facet normal 0.0 0.0 -1.0
  outer loop
    vertex 1.2613335126796779 7.465874281184537 1.9999999999999998
    vertex 1.2613335126796776 20.534125718815464 1.9999999999999998
    vertex 1.4411542731880107 20.1 1.9999999999999998
  endloop
endfacet
facet normal 0.0 0.0 -1.0
  outer loop
    vertex 1.2613335126796779 7.465874281184537 1.9999999999999998
    vertex 1.4411542731880107 20.1 1.9999999999999998
    vertex 1.4411542731880111 7.8999999999999995 1.9999999999999998
  endloop
endfacet
facet normal 0.0 0.0 -1.0
  outer loop
    vertex 1.4411542731880111 7.8999999999999995 1.9999999999999998
    vertex 1.4411542731880107 20.1 1.9999999999999998
    vertex 1.727207793864214 19.727207793864217 1.9999999999999998
  endloop
endfacet
facet normal 0.0 0.0 -1.0
  outer loop
    vertex 1.4411542731880111 7.8999999999999995 1.9999999999999998
    vertex 1.727207793864214 19.727207793864217 1.9999999999999998
    vertex 1.7272077938642152 8.272792206135785 1.9999999999999998
  endloop
endfacet
facet normal 0.0 0.0 -1.0
  outer loop
    vertex 1.7272077938642152 8.272792206135785 1.9999999999999998
    vertex 1.727207793864214 19.727207793864217 1.9999999999999998
    vertex 2.0999999999999996 19.441154273188012 1.9999999999999998
  endloop
endfacet
facet normal 0.0 0.0 -1.0
  outer loop
    vertex 1.7272077938642152 8.272792206135785 1.9999999999999998
    vertex 2.0999999999999996 19.441154273188012 1.9999999999999998
    vertex 2.1000000000000005 8.558845726811988 1.9999999999999998
  endloop
endfacet
facet normal 0.0 0.0 -1.0
  outer loop
    vertex 2.1000000000000005 8.558845726811988 1.9999999999999998
    vertex 2.0999999999999996 19.441154273188012 1.9999999999999998
    vertex 2.5341257188154613 19.261333512679677 1.9999999999999998
  endloop
endfacet
facet normal 0.0 0.0 -1.0
  outer loop
    vertex 2.1000000000000005 8.558845726811988 1.9999999999999998
    vertex 2.5341257188154613 19.261333512679677 1.9999999999999998
    vertex 2.534125718815463 8.738666487320323 1.9999999999999998
  endloop
endfacet
facet normal 0.0 0.0 -1.0
  outer loop
    vertex 2.534125718815463 8.738666487320323 1.9999999999999998
    vertex 2.5341257188154613 19.261333512679677 1.9999999999999998
    vertex 3.0 19.200000000000003 1.9999999999999998
  endloop
endfacet
facet normal 0.0 0.0 -1.0
  outer loop
    vertex 2.534125718815463 8.738666487320323 1.9999999999999998
    vertex 3.0 19.200000000000003 1.9999999999999998
    vertex 3.0 8.799999999999999 1.9999999999999998
  endloop
endfacet
facet normal 0.0 0.0 -1.0
  outer loop
    vertex 3.0 8.799999999999999 1.9999999999999998
    vertex 3.0 19.200000000000003 1.9999999999999998
    vertex 3.465874281184537 19.261333512679677 1.9999999999999998
  endloop
endfacet
facet normal 0.0 0.0 -1.0
  outer loop
    vertex 3.0 8.799999999999999 1.9999999999999998
    vertex 3.465874281184537 19.261333512679677 1.9999999999999998
    vertex 3.4658742811845373 8.738666487320321 1.9999999999999998
  endloop
endfacet
facet normal 0.0 0.0 -1.0
  outer loop
    vertex 3.4658742811845373 8.738666487320321 1.9999999999999998
    vertex 3.465874281184537 19.261333512679677 1.9999999999999998
    vertex 3.8999999999999986 19.441154273188012 1.9999999999999998
  endloop
endfacet
facet normal 0.0 0.0 -1.0
  outer loop
    vertex 3.4658742811845373 8.738666487320321 1.9999999999999998
    vertex 3.8999999999999986 19.441154273188012 1.9999999999999998
    vertex 3.9 8.558845726811988 1.9999999999999998
  endloop
endfacet
facet normal 0.0 0.0 -1.0
  outer loop
    vertex 3.9 8.558845726811988 1.9999999999999998
    vertex 3.8999999999999986 19.441154273188012 1.9999999999999998
    vertex 4.272792206135785 19.727207793864217 1.9999999999999998
  endloop
endfacet
facet normal 0.0 0.0 -1.0
  outer loop
    vertex 3.9 8.558845726811988 1.9999999999999998
    vertex 4.272792206135785 19.727207793864217 1.9999999999999998
    vertex 4.272792206135786 8.272792206135785 1.9999999999999998
  endloop
endfacet
facet normal 0.0 0.0 -1.0
  outer loop
    vertex 4.272792206135786 8.272792206135785 1.9999999999999998
    vertex 4.272792206135785 19.727207793864217 1.9999999999999998
    vertex 4.558845726811989 20.1 1.9999999999999998
  endloop
endfacet
facet normal 0.0 0.0 -1.0
  outer loop
    vertex 4.272792206135786 8.272792206135785 1.9999999999999998
    vertex 4.558845726811989 20.1 1.9999999999999998
    vertex 4.558845726811989 7.8999999999999995 1.9999999999999998
  endloop
endfacet
facet normal 0.0 0.0 -1.0
  outer loop
    vertex 4.558845726811989 7.8999999999999995 1.9999999999999998
    vertex 4.558845726811989 20.1 1.9999999999999998
    vertex 4.738666487320322 20.534125718815464 1.9999999999999998
  endloop
endfacet
facet normal 0.0 0.0 -1.0
  outer loop
    vertex 4.558845726811989 7.8999999999999995 1.9999999999999998
    vertex 4.738666487320322 20.534125718815464 1.9999999999999998
    vertex 4.738666487320323 7.465874281184537 1.9999999999999998
  endloop
endfacet
facet normal 0.0 0.0 -1.0
  outer loop
    vertex 4.738666487320323 7.465874281184537 1.9999999999999998
    vertex 4.738666487320322 20.534125718815464 1.9999999999999998
    vertex 4.8 21.0 1.9999999999999998
  endloop
endfacet
facet normal 0.0 0.0 -1.0
  outer loop
    vertex 4.738666487320323 7.465874281184537 1.9999999999999998
    vertex 4.8 21.0 1.9999999999999998
    vertex 4.8 7.0 1.9999999999999998
  endloop
endfacet
facet normal 0.0 -1.0 -0.0
  outer loop
    vertex 6.0 30.0 1.9999999999999998
    vertex 0.0 30.0 0.0
    vertex 6.0 30.0 0.0
  endloop
endfacet
facet normal 0.0 -1.0 -0.0
  outer loop
    vertex 0.0 30.0 0.0
    vertex 6.0 30.0 1.9999999999999998
    vertex 0.0 30.0 1.9999999999999998
  endloop
endfacet
facet normal 0.0 1.0 0.0
  outer loop
    vertex 0.0 0.0 1.9999999999999998
    vertex 6.0 0.0 0.0
    vertex 0.0 0.0 0.0
  endloop
endfacet
facet normal 0.0 1.0 0.0
  outer loop
    vertex 6.0 0.0 0.0
    vertex 0.0 0.0 1.9999999999999998
    vertex 6.0 0.0 1.9999999999999998
  endloop
endfacet
facet normal 1.0 -0.0 -0.0
  outer loop
    vertex 0.0 30.0 0.0
    vertex 0.0 0.0 1.9999999999999998
    vertex 0.0 0.0 0.0
  endloop
endfacet
facet normal 1.0 -0.0 -0.0
  outer loop
    vertex 0.0 0.0 1.9999999999999998
    vertex 0.0 30.0 0.0
    vertex 0.0 30.0 1.9999999999999998
  endloop
endfacet
facet normal 0.9238795325112865 0.3826834323650906 0.0
  outer loop
    vertex 4.558845726811989 21.9 0.0
    vertex 4.738666487320323 21.465874281184536 1.9999999999999998
    vertex 4.738666487320323 21.465874281184536 0.0
  endloop
endfacet
facet normal 0.9238795325112865 0.3826834323650906 0.0
  outer loop
    vertex 4.738666487320323 21.465874281184536 1.9999999999999998
    vertex 4.558845726811989 21.9 0.0
    vertex 4.558845726811989 21.9 1.9999999999999998
  endloop
endfacet
facet normal 0.7933533402912358 0.6087614290087198 0.0
  outer loop
    vertex 4.272792206135786 22.272792206135787 0.0
    vertex 4.558845726811989 21.9 1.9999999999999998
    vertex 4.558845726811989 21.9 0.0
  endloop
endfacet
facet normal 0.7933533402912358 0.6087614290087198 0.0
  outer loop
    vertex 4.558845726811989 21.9 1.9999999999999998
    vertex 4.272792206135786 22.272792206135787 0.0
    vertex 4.272792206135786 22.272792206135787 1.9999999999999998
  endloop
endfacet
facet normal 0.6087614290087227 0.7933533402912338 0.0
  outer loop
    vertex 3.9 22.55884572681199 1.9999999999999998
    vertex 4.272792206135786 22.272792206135787 0.0
    vertex 3.9 22.55884572681199 0.0
  endloop
endfacet
facet normal 0.6087614290087227 0.7933533402912338 0.0
  outer loop
    vertex 4.272792206135786 22.272792206135787 0.0
    vertex 3.9 22.55884572681199 1.9999999999999998
    vertex 4.272792206135786 22.272792206135787 1.9999999999999998
  endloop
endfacet
facet normal 0.3826834323650892 0.923879532511287 0.0
  outer loop
    vertex 3.4658742811845373 22.738666487320323 1.9999999999999998
    vertex 3.9 22.55884572681199 0.0
    vertex 3.4658742811845373 22.738666487320323 0.0
  endloop
endfacet
facet normal 0.3826834323650892 0.923879532511287 0.0
  outer loop
    vertex 3.9 22.55884572681199 0.0
    vertex 3.4658742811845373 22.738666487320323 1.9999999999999998
    vertex 3.9 22.55884572681199 1.9999999999999998
  endloop
endfacet
facet normal 0.1305261922200506 0.9914448613738107 0.0
  outer loop
    vertex 3.0 22.8 1.9999999999999998
    vertex 3.4658742811845373 22.738666487320323 0.0
    vertex 3.0 22.8 0.0
  endloop
endfacet
facet normal 0.1305261922200506 0.9914448613738107 0.0
  outer loop
    vertex 3.4658742811845373 22.738666487320323 0.0
    vertex 3.0 22.8 1.9999999999999998
    vertex 3.4658742811845373 22.738666487320323 1.9999999999999998
  endloop
endfacet
facet normal -0.13052619222005069 0.9914448613738106 -0.0
  outer loop
    vertex 2.534125718815463 22.738666487320323 1.9999999999999998
    vertex 3.0 22.8 0.0
    vertex 2.534125718815463 22.738666487320323 0.0
  endloop
endfacet
facet normal -0.13052619222005069 0.9914448613738106 -0.0
  outer loop
    vertex 3.0 22.8 0.0
    vertex 2.534125718815463 22.738666487320323 1.9999999999999998
    vertex 3.0 22.8 1.9999999999999998
  endloop
endfacet
facet normal -0.3826834323650892 0.923879532511287 -0.0
  outer loop
    vertex 2.1000000000000005 22.55884572681199 1.9999999999999998
    vertex 2.534125718815463 22.738666487320323 0.0
    vertex 2.1000000000000005 22.55884572681199 0.0
  endloop
endfacet
facet normal -0.3826834323650892 0.923879532511287 -0.0
  outer loop
    vertex 2.534125718815463 22.738666487320323 0.0
    vertex 2.1000000000000005 22.55884572681199 1.9999999999999998
    vertex 2.534125718815463 22.738666487320323 1.9999999999999998
  endloop
endfacet
facet normal -0.608761429008723 0.7933533402912335 -0.0
  outer loop
    vertex 1.7272077938642152 22.272792206135787 1.9999999999999998
    vertex 2.1000000000000005 22.55884572681199 0.0
    vertex 1.7272077938642152 22.272792206135787 0.0
  endloop
endfacet
facet normal -0.608761429008723 0.7933533402912335 -0.0
  outer loop
    vertex 2.1000000000000005 22.55884572681199 0.0
    vertex 1.7272077938642152 22.272792206135787 1.9999999999999998
    vertex 2.1000000000000005 22.55884572681199 1.9999999999999998
  endloop
endfacet
facet normal -0.7933533402912333 0.6087614290087232 -0.0
  outer loop
    vertex 1.7272077938642152 22.272792206135787 1.9999999999999998
    vertex 1.4411542731880111 21.900000000000002 0.0
    vertex 1.4411542731880111 21.900000000000002 1.9999999999999998
  endloop
endfacet
facet normal -0.7933533402912333 0.6087614290087232 -0.0
  outer loop
    vertex 1.4411542731880111 21.900000000000002 0.0
    vertex 1.7272077938642152 22.272792206135787 1.9999999999999998
    vertex 1.7272077938642152 22.272792206135787 0.0
  endloop
endfacet
facet normal -0.9238795325112867 0.3826834323650899 -0.0
  outer loop
    vertex 1.4411542731880111 21.900000000000002 1.9999999999999998
    vertex 1.2613335126796779 21.46587428118454 0.0
    vertex 1.2613335126796779 21.46587428118454 1.9999999999999998
  endloop
endfacet
facet normal -0.9238795325112867 0.3826834323650899 -0.0
  outer loop
    vertex 1.2613335126796779 21.46587428118454 0.0
    vertex 1.4411542731880111 21.900000000000002 1.9999999999999998
    vertex 1.4411542731880111 21.900000000000002 0.0
  endloop
endfacet
facet normal -0.9914448613738104 0.13052619222005166 -0.0
  outer loop
    vertex 1.2613335126796779 21.46587428118454 1.9999999999999998
    vertex 1.2000000000000006 21.0 0.0
    vertex 1.2000000000000006 21.0 1.9999999999999998
  endloop
endfacet
facet normal -0.9914448613738104 0.13052619222005166 -0.0
  outer loop
    vertex 1.2000000000000006 21.0 0.0
    vertex 1.2613335126796779 21.46587428118454 1.9999999999999998
    vertex 1.2613335126796779 21.46587428118454 0.0
  endloop
endfacet
facet normal -0.9914448613738105 -0.1305261922200517 -0.0
  outer loop
    vertex 1.2000000000000006 21.0 1.9999999999999998
    vertex 1.2613335126796776 20.534125718815464 0.0
    vertex 1.2613335126796776 20.534125718815464 1.9999999999999998
  endloop
endfacet
facet normal -0.9914448613738105 -0.1305261922200517 -0.0
  outer loop
    vertex 1.2613335126796776 20.534125718815464 0.0
    vertex 1.2000000000000006 21.0 1.9999999999999998
    vertex 1.2000000000000006 21.0 0.0
  endloop
endfacet
facet normal -0.923879532511287 -0.3826834323650896 -0.0
  outer loop
    vertex 1.2613335126796776 20.534125718815464 1.9999999999999998
    vertex 1.4411542731880107 20.1 0.0
    vertex 1.4411542731880107 20.1 1.9999999999999998
  endloop
endfacet
facet normal -0.923879532511287 -0.3826834323650896 -0.0
  outer loop
    vertex 1.4411542731880107 20.1 0.0
    vertex 1.2613335126796776 20.534125718815464 1.9999999999999998
    vertex 1.2613335126796776 20.534125718815464 0.0
  endloop
endfacet
facet normal -0.793353340291236 -0.6087614290087195 -0.0
  outer loop
    vertex 1.4411542731880107 20.1 1.9999999999999998
    vertex 1.727207793864214 19.727207793864217 0.0
    vertex 1.727207793864214 19.727207793864217 1.9999999999999998
  endloop
endfacet
facet normal -0.793353340291236 -0.6087614290087195 -0.0
  outer loop
    vertex 1.727207793864214 19.727207793864217 0.0
    vertex 1.4411542731880107 20.1 1.9999999999999998
    vertex 1.4411542731880107 20.1 0.0
  endloop
endfacet
facet normal -0.608761429008723 -0.7933533402912335 -0.0
  outer loop
    vertex 2.0999999999999996 19.441154273188012 1.9999999999999998
    vertex 1.727207793864214 19.727207793864217 0.0
    vertex 2.0999999999999996 19.441154273188012 0.0
  endloop
endfacet
facet normal -0.608761429008723 -0.7933533402912335 -0.0
  outer loop
    vertex 1.727207793864214 19.727207793864217 0.0
    vertex 2.0999999999999996 19.441154273188012 1.9999999999999998
    vertex 1.727207793864214 19.727207793864217 1.9999999999999998
  endloop
endfacet
facet normal -0.3826834323650898 -0.9238795325112867 -0.0
  outer loop
    vertex 2.5341257188154613 19.261333512679677 1.9999999999999998
    vertex 2.0999999999999996 19.441154273188012 0.0
    vertex 2.5341257188154613 19.261333512679677 0.0
  endloop
endfacet
facet normal -0.3826834323650898 -0.9238795325112867 -0.0
  outer loop
    vertex 2.0999999999999996 19.441154273188012 0.0
    vertex 2.5341257188154613 19.261333512679677 1.9999999999999998
    vertex 2.0999999999999996 19.441154273188012 1.9999999999999998
  endloop
endfacet
facet normal -0.1305261922200503 -0.9914448613738107 -0.0
  outer loop
    vertex 3.0 19.200000000000003 1.9999999999999998
    vertex 2.5341257188154613 19.261333512679677 0.0
    vertex 3.0 19.200000000000003 0.0
  endloop
endfacet
facet normal -0.1305261922200503 -0.9914448613738107 -0.0
  outer loop
    vertex 2.5341257188154613 19.261333512679677 0.0
    vertex 3.0 19.200000000000003 1.9999999999999998
    vertex 2.5341257188154613 19.261333512679677 1.9999999999999998
  endloop
endfacet
facet normal 0.13052619222005069 -0.9914448613738106 -0.0
  outer loop
    vertex 3.465874281184537 19.261333512679677 1.9999999999999998
    vertex 3.0 19.200000000000003 0.0
    vertex 3.465874281184537 19.261333512679677 0.0
  endloop
endfacet
facet normal 0.13052619222005069 -0.9914448613738106 -0.0
  outer loop
    vertex 3.0 19.200000000000003 0.0
    vertex 3.465874281184537 19.261333512679677 1.9999999999999998
    vertex 3.0 19.200000000000003 1.9999999999999998
  endloop
endfacet
facet normal 0.3826834323650898 -0.9238795325112867 -0.0
  outer loop
    vertex 3.8999999999999986 19.441154273188012 1.9999999999999998
    vertex 3.465874281184537 19.261333512679677 0.0
    vertex 3.8999999999999986 19.441154273188012 0.0
  endloop
endfacet
facet normal 0.3826834323650898 -0.9238795325112867 -0.0
  outer loop
    vertex 3.465874281184537 19.261333512679677 0.0
    vertex 3.8999999999999986 19.441154273188012 1.9999999999999998
    vertex 3.465874281184537 19.261333512679677 1.9999999999999998
  endloop
endfacet
facet normal 0.6087614290087219 -0.7933533402912342 -0.0
  outer loop
    vertex 4.272792206135785 19.727207793864217 1.9999999999999998
    vertex 3.8999999999999986 19.441154273188012 0.0
    vertex 4.272792206135785 19.727207793864217 0.0
  endloop
endfacet
facet normal 0.6087614290087219 -0.7933533402912342 -0.0
  outer loop
    vertex 3.8999999999999986 19.441154273188012 0.0
    vertex 4.272792206135785 19.727207793864217 1.9999999999999998
    vertex 3.8999999999999986 19.441154273188012 1.9999999999999998
  endloop
endfacet
facet normal 0.7933533402912337 -0.6087614290087228 -0.0
  outer loop
    vertex 4.558845726811989 20.1 0.0
    vertex 4.272792206135785 19.727207793864217 1.9999999999999998
    vertex 4.272792206135785 19.727207793864217 0.0
  endloop
endfacet
facet normal 0.7933533402912337 -0.6087614290087228 -0.0
  outer loop
    vertex 4.272792206135785 19.727207793864217 1.9999999999999998
    vertex 4.558845726811989 20.1 0.0
    vertex 4.558845726811989 20.1 1.9999999999999998
  endloop
endfacet
facet normal 0.9238795325112865 -0.3826834323650906 -0.0
  outer loop
    vertex 4.738666487320322 20.534125718815464 0.0
    vertex 4.558845726811989 20.1 1.9999999999999998
    vertex 4.558845726811989 20.1 0.0
  endloop
endfacet
facet normal 0.9238795325112865 -0.3826834323650906 -0.0
  outer loop
    vertex 4.558845726811989 20.1 1.9999999999999998
    vertex 4.738666487320322 20.534125718815464 0.0
    vertex 4.738666487320322 20.534125718815464 1.9999999999999998
  endloop
endfacet
facet normal 0.9914448613738104 -0.13052619222005166 -0.0
  outer loop
    vertex 4.8 21.0 0.0
    vertex 4.738666487320322 20.534125718815464 1.9999999999999998
    vertex 4.738666487320322 20.534125718815464 0.0
  endloop
endfacet
facet normal 0.9914448613738104 -0.13052619222005166 -0.0
  outer loop
    vertex 4.738666487320322 20.534125718815464 1.9999999999999998
    vertex 4.8 21.0 0.0
    vertex 4.8 21.0 1.9999999999999998
  endloop
endfacet
facet normal 0.9914448613738105 0.13052619222005096 0.0
  outer loop
    vertex 4.738666487320323 21.465874281184536 0.0
    vertex 4.8 21.0 1.9999999999999998
    vertex 4.8 21.0 0.0
  endloop
endfacet
facet normal 0.9914448613738105 0.13052619222005096 0.0
  outer loop
    vertex 4.8 21.0 1.9999999999999998
    vertex 4.738666487320323 21.465874281184536 0.0
    vertex 4.738666487320323 21.465874281184536 1.9999999999999998
  endloop
endfacet
facet normal 0.9914448613738107 0.1305261922200506 0.0
  outer loop
    vertex 4.738666487320323 7.465874281184537 0.0
    vertex 4.8 7.0 1.9999999999999998
    vertex 4.8 7.0 0.0
  endloop
endfacet
facet normal 0.9914448613738107 0.1305261922200506 0.0
  outer loop
    vertex 4.8 7.0 1.9999999999999998
    vertex 4.738666487320323 7.465874281184537 0.0
    vertex 4.738666487320323 7.465874281184537 1.9999999999999998
  endloop
endfacet
facet normal 0.9238795325112865 0.3826834323650906 0.0
  outer loop
    vertex 4.558845726811989 7.8999999999999995 0.0
    vertex 4.738666487320323 7.465874281184537 1.9999999999999998
    vertex 4.738666487320323 7.465874281184537 0.0
  endloop
endfacet
facet normal 0.9238795325112865 0.3826834323650906 0.0
  outer loop
    vertex 4.738666487320323 7.465874281184537 1.9999999999999998
    vertex 4.558845726811989 7.8999999999999995 0.0
    vertex 4.558845726811989 7.8999999999999995 1.9999999999999998
  endloop
endfacet
facet normal 0.7933533402912358 0.6087614290087198 0.0
  outer loop
    vertex 4.272792206135786 8.272792206135785 0.0
    vertex 4.558845726811989 7.8999999999999995 1.9999999999999998
    vertex 4.558845726811989 7.8999999999999995 0.0
  endloop
endfacet
facet normal 0.7933533402912358 0.6087614290087198 0.0
  outer loop
    vertex 4.558845726811989 7.8999999999999995 1.9999999999999998
    vertex 4.272792206135786 8.272792206135785 0.0
    vertex 4.272792206135786 8.272792206135785 1.9999999999999998
  endloop
endfacet
facet normal 0.6087614290087189 0.7933533402912365 0.0
  outer loop
    vertex 3.9 8.558845726811988 1.9999999999999998
    vertex 4.272792206135786 8.272792206135785 0.0
    vertex 3.9 8.558845726811988 0.0
  endloop
endfacet
facet normal 0.6087614290087189 0.7933533402912365 0.0
  outer loop
    vertex 4.272792206135786 8.272792206135785 0.0
    vertex 3.9 8.558845726811988 1.9999999999999998
    vertex 4.272792206135786 8.272792206135785 1.9999999999999998
  endloop
endfacet
facet normal 0.3826834323650892 0.923879532511287 0.0
  outer loop
    vertex 3.4658742811845373 8.738666487320321 1.9999999999999998
    vertex 3.9 8.558845726811988 0.0
    vertex 3.4658742811845373 8.738666487320321 0.0
  endloop
endfacet
facet normal 0.3826834323650892 0.923879532511287 0.0
  outer loop
    vertex 3.9 8.558845726811988 0.0
    vertex 3.4658742811845373 8.738666487320321 1.9999999999999998
    vertex 3.9 8.558845726811988 1.9999999999999998
  endloop
endfacet
facet normal 0.13052619222005352 0.9914448613738102 0.0
  outer loop
    vertex 3.0 8.799999999999999 1.9999999999999998
    vertex 3.4658742811845373 8.738666487320321 0.0
    vertex 3.0 8.799999999999999 0.0
  endloop
endfacet
facet normal 0.13052619222005352 0.9914448613738102 0.0
  outer loop
    vertex 3.4658742811845373 8.738666487320321 0.0
    vertex 3.0 8.799999999999999 1.9999999999999998
    vertex 3.4658742811845373 8.738666487320321 1.9999999999999998
  endloop
endfacet
facet normal -0.13052619222005069 0.9914448613738106 -0.0
  outer loop
    vertex 2.534125718815463 8.738666487320323 1.9999999999999998
    vertex 3.0 8.799999999999999 0.0
    vertex 2.534125718815463 8.738666487320323 0.0
  endloop
endfacet
facet normal -0.13052619222005069 0.9914448613738106 -0.0
  outer loop
    vertex 3.0 8.799999999999999 0.0
    vertex 2.534125718815463 8.738666487320323 1.9999999999999998
    vertex 3.0 8.799999999999999 1.9999999999999998
  endloop
endfacet
facet normal -0.3826834323650918 0.9238795325112859 -0.0
  outer loop
    vertex 2.1000000000000005 8.558845726811988 1.9999999999999998
    vertex 2.534125718815463 8.738666487320323 0.0
    vertex 2.1000000000000005 8.558845726811988 0.0
  endloop
endfacet
facet normal -0.3826834323650918 0.9238795325112859 -0.0
  outer loop
    vertex 2.534125718815463 8.738666487320323 0.0
    vertex 2.1000000000000005 8.558845726811988 1.9999999999999998
    vertex 2.534125718815463 8.738666487320323 1.9999999999999998
  endloop
endfacet
facet normal -0.6087614290087192 0.7933533402912363 -0.0
  outer loop
    vertex 1.7272077938642152 8.272792206135785 1.9999999999999998
    vertex 2.1000000000000005 8.558845726811988 0.0
    vertex 1.7272077938642152 8.272792206135785 0.0
  endloop
endfacet
facet normal -0.6087614290087192 0.7933533402912363 -0.0
  outer loop
    vertex 2.1000000000000005 8.558845726811988 0.0
    vertex 1.7272077938642152 8.272792206135785 1.9999999999999998
    vertex 2.1000000000000005 8.558845726811988 1.9999999999999998
  endloop
endfacet
facet normal -0.7933533402912356 0.6087614290087203 -0.0
  outer loop
    vertex 1.7272077938642152 8.272792206135785 1.9999999999999998
    vertex 1.4411542731880111 7.8999999999999995 0.0
    vertex 1.4411542731880111 7.8999999999999995 1.9999999999999998
  endloop
endfacet
facet normal -0.7933533402912356 0.6087614290087203 -0.0
  outer loop
    vertex 1.4411542731880111 7.8999999999999995 0.0
    vertex 1.7272077938642152 8.272792206135785 1.9999999999999998
    vertex 1.7272077938642152 8.272792206135785 0.0
  endloop
endfacet
facet normal -0.9238795325112867 0.3826834323650899 -0.0
  outer loop
    vertex 1.4411542731880111 7.8999999999999995 1.9999999999999998
    vertex 1.2613335126796779 7.465874281184537 0.0
    vertex 1.2613335126796779 7.465874281184537 1.9999999999999998
  endloop
endfacet
facet normal -0.9238795325112867 0.3826834323650899 -0.0
  outer loop
    vertex 1.2613335126796779 7.465874281184537 0.0
    vertex 1.4411542731880111 7.8999999999999995 1.9999999999999998
    vertex 1.4411542731880111 7.8999999999999995 0.0
  endloop
endfacet
facet normal -0.9914448613738105 0.13052619222005207 -0.0
  outer loop
    vertex 1.2613335126796779 7.465874281184537 1.9999999999999998
    vertex 1.2000000000000006 7.0 0.0
    vertex 1.2000000000000006 7.0 1.9999999999999998
  endloop
endfacet
facet normal -0.9914448613738105 0.13052619222005207 -0.0
  outer loop
    vertex 1.2000000000000006 7.0 0.0
    vertex 1.2613335126796779 7.465874281184537 1.9999999999999998
    vertex 1.2613335126796779 7.465874281184537 0.0
  endloop
endfacet
facet normal -0.9914448613738105 -0.1305261922200517 -0.0
  outer loop
    vertex 1.2000000000000006 7.0 1.9999999999999998
    vertex 1.2613335126796776 6.534125718815464 0.0
    vertex 1.2613335126796776 6.534125718815464 1.9999999999999998
  endloop
endfacet
facet normal -0.9914448613738105 -0.1305261922200517 -0.0
  outer loop
    vertex 1.2613335126796776 6.534125718815464 0.0
    vertex 1.2000000000000006 7.0 1.9999999999999998
    vertex 1.2000000000000006 7.0 0.0
  endloop
endfacet
facet normal -0.9238795325112872 -0.3826834323650891 -0.0
  outer loop
    vertex 1.2613335126796776 6.534125718815464 1.9999999999999998
    vertex 1.4411542731880107 6.1000000000000005 0.0
    vertex 1.4411542731880107 6.1000000000000005 1.9999999999999998
  endloop
endfacet
facet normal -0.9238795325112872 -0.3826834323650891 -0.0
  outer loop
    vertex 1.4411542731880107 6.1000000000000005 0.0
    vertex 1.2613335126796776 6.534125718815464 1.9999999999999998
    vertex 1.2613335126796776 6.534125718815464 0.0
  endloop
endfacet
facet normal -0.7933533402912355 -0.6087614290087203 -0.0
  outer loop
    vertex 1.4411542731880107 6.1000000000000005 1.9999999999999998
    vertex 1.727207793864214 5.727207793864216 0.0
    vertex 1.727207793864214 5.727207793864216 1.9999999999999998
  endloop
endfacet
facet normal -0.7933533402912355 -0.6087614290087203 -0.0
  outer loop
    vertex 1.727207793864214 5.727207793864216 0.0
    vertex 1.4411542731880107 6.1000000000000005 1.9999999999999998
    vertex 1.4411542731880107 6.1000000000000005 0.0
  endloop
endfacet
facet normal -0.6087614290087211 -0.7933533402912348 -0.0
  outer loop
    vertex 2.0999999999999996 5.441154273188011 1.9999999999999998
    vertex 1.727207793864214 5.727207793864216 0.0
    vertex 2.0999999999999996 5.441154273188011 0.0
  endloop
endfacet
facet normal -0.6087614290087211 -0.7933533402912348 -0.0
  outer loop
    vertex 1.727207793864214 5.727207793864216 0.0
    vertex 2.0999999999999996 5.441154273188011 1.9999999999999998
    vertex 1.727207793864214 5.727207793864216 1.9999999999999998
  endloop
endfacet
facet normal -0.3826834323650911 -0.9238795325112863 -0.0
  outer loop
    vertex 2.5341257188154613 5.261333512679678 1.9999999999999998
    vertex 2.0999999999999996 5.441154273188011 0.0
    vertex 2.5341257188154613 5.261333512679678 0.0
  endloop
endfacet
facet normal -0.3826834323650911 -0.9238795325112863 -0.0
  outer loop
    vertex 2.0999999999999996 5.441154273188011 0.0
    vertex 2.5341257188154613 5.261333512679678 1.9999999999999998
    vertex 2.0999999999999996 5.441154273188011 1.9999999999999998
  endloop
endfacet
facet normal -0.13052619222005177 -0.9914448613738105 -0.0
  outer loop
    vertex 3.0 5.2 1.9999999999999998
    vertex 2.5341257188154613 5.261333512679678 0.0
    vertex 3.0 5.2 0.0
  endloop
endfacet
facet normal -0.13052619222005177 -0.9914448613738105 -0.0
  outer loop
    vertex 2.5341257188154613 5.261333512679678 0.0
    vertex 3.0 5.2 1.9999999999999998
    vertex 2.5341257188154613 5.261333512679678 1.9999999999999998
  endloop
endfacet
facet normal 0.13052619222005069 -0.9914448613738106 -0.0
  outer loop
    vertex 3.465874281184537 5.261333512679677 1.9999999999999998
    vertex 3.0 5.2 0.0
    vertex 3.465874281184537 5.261333512679677 0.0
  endloop
endfacet
facet normal 0.13052619222005069 -0.9914448613738106 -0.0
  outer loop
    vertex 3.0 5.2 0.0
    vertex 3.465874281184537 5.261333512679677 1.9999999999999998
    vertex 3.0 5.2 1.9999999999999998
  endloop
endfacet
facet normal 0.3826834323650898 -0.9238795325112867 -0.0
  outer loop
    vertex 3.8999999999999986 5.44115427318801 1.9999999999999998
    vertex 3.465874281184537 5.261333512679677 0.0
    vertex 3.8999999999999986 5.44115427318801 0.0
  endloop
endfacet
facet normal 0.3826834323650898 -0.9238795325112867 -0.0
  outer loop
    vertex 3.465874281184537 5.261333512679677 0.0
    vertex 3.8999999999999986 5.44115427318801 1.9999999999999998
    vertex 3.465874281184537 5.261333512679677 1.9999999999999998
  endloop
endfacet
facet normal 0.6087614290087201 -0.7933533402912357 -0.0
  outer loop
    vertex 4.272792206135785 5.727207793864214 1.9999999999999998
    vertex 3.8999999999999986 5.44115427318801 0.0
    vertex 4.272792206135785 5.727207793864214 0.0
  endloop
endfacet
facet normal 0.6087614290087201 -0.7933533402912357 -0.0
  outer loop
    vertex 3.8999999999999986 5.44115427318801 0.0
    vertex 4.272792206135785 5.727207793864214 1.9999999999999998
    vertex 3.8999999999999986 5.44115427318801 1.9999999999999998
  endloop
endfacet
facet normal 0.7933533402912353 -0.6087614290087204 -0.0
  outer loop
    vertex 4.558845726811989 6.1 0.0
    vertex 4.272792206135785 5.727207793864214 1.9999999999999998
    vertex 4.272792206135785 5.727207793864214 0.0
  endloop
endfacet
facet normal 0.7933533402912353 -0.6087614290087204 -0.0
  outer loop
    vertex 4.272792206135785 5.727207793864214 1.9999999999999998
    vertex 4.558845726811989 6.1 0.0
    vertex 4.558845726811989 6.1 1.9999999999999998
  endloop
endfacet
facet normal 0.9238795325112863 -0.3826834323650911 -0.0
  outer loop
    vertex 4.738666487320322 6.534125718815461 0.0
    vertex 4.558845726811989 6.1 1.9999999999999998
    vertex 4.558845726811989 6.1 0.0
  endloop
endfacet
facet normal 0.9238795325112863 -0.3826834323650911 -0.0
  outer loop
    vertex 4.558845726811989 6.1 1.9999999999999998
    vertex 4.738666487320322 6.534125718815461 0.0
    vertex 4.738666487320322 6.534125718815461 1.9999999999999998
  endloop
endfacet
facet normal 0.9914448613738104 -0.13052619222005166 -0.0
  outer loop
    vertex 4.8 7.0 0.0
    vertex 4.738666487320322 6.534125718815461 1.9999999999999998
    vertex 4.738666487320322 6.534125718815461 0.0
  endloop
endfacet
facet normal 0.9914448613738104 -0.13052619222005166 -0.0
  outer loop
    vertex 4.738666487320322 6.534125718815461 1.9999999999999998
    vertex 4.8 7.0 0.0
    vertex 4.8 7.0 1.9999999999999998
  endloop
endfacet
facet normal 0.0 0.0 -1.0
  outer loop
    vertex 187.00000000000003 30.0 1.9999999999999998
    vertex 188.20000000000002 21.0 1.9999999999999998
    vertex 187.00000000000003 0.0 1.9999999999999998
  endloop
endfacet
facet normal 0.0 0.0 -1.0
  outer loop
    vertex 188.20000000000002 21.0 1.9999999999999998
    vertex 187.00000000000003 30.0 1.9999999999999998
    vertex 188.2613335126797 21.465874281184536 1.9999999999999998
  endloop
endfacet
facet normal 0.0 0.0 -1.0
  outer loop
    vertex 188.2613335126797 21.465874281184536 1.9999999999999998
    vertex 187.00000000000003 30.0 1.9999999999999998
    vertex 188.44115427318803 21.9 1.9999999999999998
  endloop
endfacet
facet normal 0.0 0.0 -1.0
  outer loop
    vertex 188.44115427318803 21.9 1.9999999999999998
    vertex 187.00000000000003 30.0 1.9999999999999998
    vertex 193.0 30.0 1.9999999999999998
  endloop
endfacet
facet normal 0.0 0.0 -1.0
  outer loop
    vertex 188.44115427318803 21.9 1.9999999999999998
    vertex 193.0 30.0 1.9999999999999998
    vertex 188.72720779386424 22.272792206135787 1.9999999999999998
  endloop
endfacet
facet normal 0.0 0.0 -1.0
  outer loop
    vertex 188.72720779386424 22.272792206135787 1.9999999999999998
    vertex 193.0 30.0 1.9999999999999998
    vertex 189.10000000000002 22.558845726811988 1.9999999999999998
  endloop
endfacet
facet normal 0.0 0.0 -1.0
  outer loop
    vertex 189.10000000000002 22.558845726811988 1.9999999999999998
    vertex 193.0 30.0 1.9999999999999998
    vertex 189.53412571881546 22.73866648732032 1.9999999999999998
  endloop
endfacet
facet normal 0.0 0.0 -1.0
  outer loop
    vertex 189.53412571881546 22.73866648732032 1.9999999999999998
    vertex 193.0 30.0 1.9999999999999998
    vertex 190.0 22.799999999999997 1.9999999999999998
  endloop
endfacet
facet normal 0.0 0.0 -1.0
  outer loop
    vertex 190.0 22.799999999999997 1.9999999999999998
    vertex 193.0 30.0 1.9999999999999998
    vertex 190.46587428118454 22.73866648732032 1.9999999999999998
  endloop
endfacet
facet normal 0.0 0.0 -1.0
  outer loop
    vertex 190.46587428118454 22.73866648732032 1.9999999999999998
    vertex 193.0 30.0 1.9999999999999998
    vertex 190.9 22.558845726811988 1.9999999999999998
  endloop
endfacet
facet normal 0.0 0.0 -1.0
  outer loop
    vertex 190.9 22.558845726811988 1.9999999999999998
    vertex 193.0 30.0 1.9999999999999998
    vertex 191.2727922061358 22.272792206135787 1.9999999999999998
  endloop
endfacet
facet normal 0.0 0.0 -1.0
  outer loop
    vertex 191.2727922061358 22.272792206135787 1.9999999999999998
    vertex 193.0 30.0 1.9999999999999998
    vertex 191.558845726812 21.9 1.9999999999999998
  endloop
endfacet
facet normal 0.0 0.0 -1.0
  outer loop
    vertex 191.558845726812 21.9 1.9999999999999998
    vertex 193.0 30.0 1.9999999999999998
    vertex 191.73866648732033 21.465874281184536 1.9999999999999998
  endloop
endfacet
facet normal 0.0 0.0 -1.0
  outer loop
    vertex 191.73866648732033 21.465874281184536 1.9999999999999998
    vertex 193.0 30.0 1.9999999999999998
    vertex 191.8 21.0 1.9999999999999998
  endloop
endfacet
facet normal 0.0 0.0 -1.0
  outer loop
    vertex 191.8 21.0 1.9999999999999998
    vertex 193.0 30.0 1.9999999999999998
    vertex 191.8 7.0 1.9999999999999998
  endloop
endfacet
facet normal 0.0 0.0 -1.0
  outer loop
    vertex 187.00000000000003 0.0 1.9999999999999998
    vertex 188.44115427318803 6.100000000000002 1.9999999999999998
    vertex 193.0 0.0 1.9999999999999998
  endloop
endfacet
facet normal 0.0 0.0 -1.0
  outer loop
    vertex 188.44115427318803 6.100000000000002 1.9999999999999998
    vertex 187.00000000000003 0.0 1.9999999999999998
    vertex 188.2613335126797 6.534125718815464 1.9999999999999998
  endloop
endfacet
facet normal 0.0 0.0 -1.0
  outer loop
    vertex 188.2613335126797 6.534125718815464 1.9999999999999998
    vertex 187.00000000000003 0.0 1.9999999999999998
    vertex 188.20000000000002 7.0 1.9999999999999998
  endloop
endfacet
facet normal 0.0 0.0 -1.0
  outer loop
    vertex 188.20000000000002 7.0 1.9999999999999998
    vertex 187.00000000000003 0.0 1.9999999999999998
    vertex 188.20000000000002 21.0 1.9999999999999998
  endloop
endfacet
facet normal 0.0 0.0 -1.0
  outer loop
    vertex 193.0 0.0 1.9999999999999998
    vertex 188.44115427318803 6.100000000000002 1.9999999999999998
    vertex 188.72720779386424 5.727207793864217 1.9999999999999998
  endloop
endfacet
facet normal 0.0 0.0 -1.0
  outer loop
    vertex 193.0 0.0 1.9999999999999998
    vertex 188.72720779386424 5.727207793864217 1.9999999999999998
    vertex 189.10000000000002 5.441154273188014 1.9999999999999998
  endloop
endfacet
facet normal 0.0 0.0 -1.0
  outer loop
    vertex 193.0 0.0 1.9999999999999998
    vertex 189.10000000000002 5.441154273188014 1.9999999999999998
    vertex 189.53412571881546 5.2613335126796805 1.9999999999999998
  endloop
endfacet
facet normal 0.0 0.0 -1.0
  outer loop
    vertex 193.0 0.0 1.9999999999999998
    vertex 189.53412571881546 5.2613335126796805 1.9999999999999998
    vertex 190.0 5.200000000000003 1.9999999999999998
  endloop
endfacet
facet normal 0.0 0.0 -1.0
  outer loop
    vertex 193.0 0.0 1.9999999999999998
    vertex 190.0 5.200000000000003 1.9999999999999998
    vertex 190.46587428118454 5.26133351267968 1.9999999999999998
  endloop
endfacet
facet normal 0.0 0.0 -1.0
  outer loop
    vertex 193.0 0.0 1.9999999999999998
    vertex 190.46587428118454 5.26133351267968 1.9999999999999998
    vertex 190.9 5.441154273188013 1.9999999999999998
  endloop
endfacet
facet normal 0.0 0.0 -1.0
  outer loop
    vertex 193.0 0.0 1.9999999999999998
    vertex 190.9 5.441154273188013 1.9999999999999998
    vertex 191.2727922061358 5.727207793864216 1.9999999999999998
  endloop
endfacet
facet normal 0.0 0.0 -1.0
  outer loop
    vertex 193.0 0.0 1.9999999999999998
    vertex 191.2727922061358 5.727207793864216 1.9999999999999998
    vertex 191.558845726812 6.1000000000000005 1.9999999999999998
  endloop
endfacet
facet normal 0.0 0.0 -1.0
  outer loop
    vertex 193.0 0.0 1.9999999999999998
    vertex 191.558845726812 6.1000000000000005 1.9999999999999998
    vertex 191.73866648732033 6.534125718815463 1.9999999999999998
  endloop
endfacet
facet normal 0.0 0.0 -1.0
  outer loop
    vertex 193.0 0.0 1.9999999999999998
    vertex 191.73866648732033 6.534125718815463 1.9999999999999998
    vertex 191.8 7.0 1.9999999999999998
  endloop
endfacet
facet normal 0.0 0.0 -1.0
  outer loop
    vertex 193.0 0.0 1.9999999999999998
    vertex 191.8 7.0 1.9999999999999998
    vertex 193.0 30.0 1.9999999999999998
  endloop
endfacet
facet normal 0.0 0.0 -1.0
  outer loop
    vertex 188.2613335126797 20.534125718815464 1.9999999999999998
    vertex 188.20000000000002 7.0 1.9999999999999998
    vertex 188.20000000000002 21.0 1.9999999999999998
  endloop
endfacet
facet normal 0.0 0.0 -1.0
  outer loop
    vertex 188.20000000000002 7.0 1.9999999999999998
    vertex 188.2613335126797 20.534125718815464 1.9999999999999998
    vertex 188.2613335126797 7.465874281184537 1.9999999999999998
  endloop
endfacet
facet normal 0.0 0.0 -1.0
  outer loop
    vertex 188.2613335126797 7.465874281184537 1.9999999999999998
    vertex 188.2613335126797 20.534125718815464 1.9999999999999998
    vertex 188.44115427318803 20.1 1.9999999999999998
  endloop
endfacet
facet normal 0.0 0.0 -1.0
  outer loop
    vertex 188.2613335126797 7.465874281184537 1.9999999999999998
    vertex 188.44115427318803 20.1 1.9999999999999998
    vertex 188.44115427318803 7.899999999999999 1.9999999999999998
  endloop
endfacet
facet normal 0.0 0.0 -1.0
  outer loop
    vertex 188.44115427318803 7.899999999999999 1.9999999999999998
    vertex 188.44115427318803 20.1 1.9999999999999998
    vertex 188.72720779386424 19.72720779386422 1.9999999999999998
  endloop
endfacet
facet normal 0.0 0.0 -1.0
  outer loop
    vertex 188.44115427318803 7.899999999999999 1.9999999999999998
    vertex 188.72720779386424 19.72720779386422 1.9999999999999998
    vertex 188.72720779386424 8.272792206135783 1.9999999999999998
  endloop
endfacet
facet normal 0.0 0.0 -1.0
  outer loop
    vertex 188.72720779386424 8.272792206135783 1.9999999999999998
    vertex 188.72720779386424 19.72720779386422 1.9999999999999998
    vertex 189.10000000000002 19.441154273188015 1.9999999999999998
  endloop
endfacet
facet normal 0.0 0.0 -1.0
  outer loop
    vertex 188.72720779386424 8.272792206135783 1.9999999999999998
    vertex 189.10000000000002 19.441154273188015 1.9999999999999998
    vertex 189.10000000000002 8.558845726811986 1.9999999999999998
  endloop
endfacet
facet normal 0.0 0.0 -1.0
  outer loop
    vertex 189.10000000000002 8.558845726811986 1.9999999999999998
    vertex 189.10000000000002 19.441154273188015 1.9999999999999998
    vertex 189.53412571881546 19.26133351267968 1.9999999999999998
  endloop
endfacet
facet normal 0.0 0.0 -1.0
  outer loop
    vertex 189.10000000000002 8.558845726811986 1.9999999999999998
    vertex 189.53412571881546 19.26133351267968 1.9999999999999998
    vertex 189.53412571881546 8.73866648732032 1.9999999999999998
  endloop
endfacet
facet normal 0.0 0.0 -1.0
  outer loop
    vertex 189.53412571881546 8.73866648732032 1.9999999999999998
    vertex 189.53412571881546 19.26133351267968 1.9999999999999998
    vertex 190.0 19.200000000000003 1.9999999999999998
  endloop
endfacet
facet normal 0.0 0.0 -1.0
  outer loop
    vertex 189.53412571881546 8.73866648732032 1.9999999999999998
    vertex 190.0 19.200000000000003 1.9999999999999998
    vertex 190.0 8.799999999999997 1.9999999999999998
  endloop
endfacet
facet normal 0.0 0.0 -1.0
  outer loop
    vertex 190.0 8.799999999999997 1.9999999999999998
    vertex 190.0 19.200000000000003 1.9999999999999998
    vertex 190.46587428118454 19.26133351267968 1.9999999999999998
  endloop
endfacet
facet normal 0.0 0.0 -1.0
  outer loop
    vertex 190.0 8.799999999999997 1.9999999999999998
    vertex 190.46587428118454 19.26133351267968 1.9999999999999998
    vertex 190.46587428118454 8.738666487320318 1.9999999999999998
  endloop
endfacet
facet normal 0.0 0.0 -1.0
  outer loop
    vertex 190.46587428118454 8.738666487320318 1.9999999999999998
    vertex 190.46587428118454 19.26133351267968 1.9999999999999998
    vertex 190.9 19.441154273188015 1.9999999999999998
  endloop
endfacet
facet normal 0.0 0.0 -1.0
  outer loop
    vertex 190.46587428118454 8.738666487320318 1.9999999999999998
    vertex 190.9 19.441154273188015 1.9999999999999998
    vertex 190.9 8.558845726811986 1.9999999999999998
  endloop
endfacet
facet normal 0.0 0.0 -1.0
  outer loop
    vertex 190.9 8.558845726811986 1.9999999999999998
    vertex 190.9 19.441154273188015 1.9999999999999998
    vertex 191.2727922061358 19.727207793864217 1.9999999999999998
  endloop
endfacet
facet normal 0.0 0.0 -1.0
  outer loop
    vertex 190.9 8.558845726811986 1.9999999999999998
    vertex 191.2727922061358 19.727207793864217 1.9999999999999998
    vertex 191.2727922061358 8.272792206135783 1.9999999999999998
  endloop
endfacet
facet normal 0.0 0.0 -1.0
  outer loop
    vertex 191.2727922061358 8.272792206135783 1.9999999999999998
    vertex 191.2727922061358 19.727207793864217 1.9999999999999998
    vertex 191.558845726812 20.1 1.9999999999999998
  endloop
endfacet
facet normal 0.0 0.0 -1.0
  outer loop
    vertex 191.2727922061358 8.272792206135783 1.9999999999999998
    vertex 191.558845726812 20.1 1.9999999999999998
    vertex 191.558845726812 7.899999999999999 1.9999999999999998
  endloop
endfacet
facet normal 0.0 0.0 -1.0
  outer loop
    vertex 191.558845726812 7.899999999999999 1.9999999999999998
    vertex 191.558845726812 20.1 1.9999999999999998
    vertex 191.73866648732033 20.534125718815464 1.9999999999999998
  endloop
endfacet
facet normal 0.0 0.0 -1.0
  outer loop
    vertex 191.558845726812 7.899999999999999 1.9999999999999998
    vertex 191.73866648732033 20.534125718815464 1.9999999999999998
    vertex 191.73866648732033 7.4658742811845356 1.9999999999999998
  endloop
endfacet
facet normal 0.0 0.0 -1.0
  outer loop
    vertex 191.73866648732033 7.4658742811845356 1.9999999999999998
    vertex 191.73866648732033 20.534125718815464 1.9999999999999998
    vertex 191.8 21.0 1.9999999999999998
  endloop
endfacet
facet normal 0.0 0.0 -1.0
  outer loop
    vertex 191.73866648732033 7.4658742811845356 1.9999999999999998
    vertex 191.8 21.0 1.9999999999999998
    vertex 191.8 7.0 1.9999999999999998
  endloop
endfacet
facet normal 0.0 1.0 0.0
  outer loop
    vertex 187.00000000000003 0.0 1.9999999999999998
    vertex 193.0 0.0 0.0
    vertex 187.00000000000003 0.0 0.0
  endloop
endfacet
facet normal 0.0 1.0 0.0
  outer loop
    vertex 193.0 0.0 0.0
    vertex 187.00000000000003 0.0 1.9999999999999998
    vertex 193.0 0.0 1.9999999999999998
  endloop
endfacet
facet normal 0.0 -1.0 -0.0
  outer loop
    vertex 193.0 30.0 1.9999999999999998
    vertex 187.00000000000003 30.0 0.0
    vertex 193.0 30.0 0.0
  endloop
endfacet
facet normal 0.0 -1.0 -0.0
  outer loop
    vertex 187.00000000000003 30.0 0.0
    vertex 193.0 30.0 1.9999999999999998
    vertex 187.00000000000003 30.0 1.9999999999999998
  endloop
endfacet
facet normal -1.0 -0.0 -0.0
  outer loop
    vertex 193.0 30.0 1.9999999999999998
    vertex 193.0 0.0 0.0
    vertex 193.0 0.0 1.9999999999999998
  endloop
endfacet
facet normal -1.0 -0.0 -0.0
  outer loop
    vertex 193.0 0.0 0.0
    vertex 193.0 30.0 1.9999999999999998
    vertex 193.0 30.0 0.0
  endloop
endfacet
facet normal -0.9914448613738114 0.13052619222004508 -0.0
  outer loop
    vertex 188.2613335126797 21.465874281184536 1.9999999999999998
    vertex 188.20000000000002 21.0 0.0
    vertex 188.20000000000002 21.0 1.9999999999999998
  endloop
endfacet
facet normal -0.9914448613738114 0.13052619222004508 -0.0
  outer loop
    vertex 188.20000000000002 21.0 0.0
    vertex 188.2613335126797 21.465874281184536 1.9999999999999998
    vertex 188.2613335126797 21.465874281184536 0.0
  endloop
endfacet
facet normal -0.9914448613738114 -0.13052619222004508 -0.0
  outer loop
    vertex 188.20000000000002 21.0 1.9999999999999998
    vertex 188.2613335126797 20.534125718815464 0.0
    vertex 188.2613335126797 20.534125718815464 1.9999999999999998
  endloop
endfacet
facet normal -0.9914448613738114 -0.13052619222004508 -0.0
  outer loop
    vertex 188.2613335126797 20.534125718815464 0.0
    vertex 188.20000000000002 21.0 1.9999999999999998
    vertex 188.20000000000002 21.0 0.0
  endloop
endfacet
facet normal -0.9238795325112764 -0.3826834323651149 -0.0
  outer loop
    vertex 188.2613335126797 20.534125718815464 1.9999999999999998
    vertex 188.44115427318803 20.1 0.0
    vertex 188.44115427318803 20.1 1.9999999999999998
  endloop
endfacet
facet normal -0.9238795325112764 -0.3826834323651149 -0.0
  outer loop
    vertex 188.44115427318803 20.1 0.0
    vertex 188.2613335126797 20.534125718815464 1.9999999999999998
    vertex 188.2613335126797 20.534125718815464 0.0
  endloop
endfacet
facet normal -0.793353340291246 -0.6087614290087067 -0.0
  outer loop
    vertex 188.44115427318803 20.1 1.9999999999999998
    vertex 188.72720779386424 19.72720779386422 0.0
    vertex 188.72720779386424 19.72720779386422 1.9999999999999998
  endloop
endfacet
facet normal -0.793353340291246 -0.6087614290087067 -0.0
  outer loop
    vertex 188.72720779386424 19.72720779386422 0.0
    vertex 188.44115427318803 20.1 1.9999999999999998
    vertex 188.44115427318803 20.1 0.0
  endloop
endfacet
facet normal -0.6087614290087227 -0.7933533402912338 -0.0
  outer loop
    vertex 189.10000000000002 19.441154273188015 1.9999999999999998
    vertex 188.72720779386424 19.72720779386422 0.0
    vertex 189.10000000000002 19.441154273188015 0.0
  endloop
endfacet
facet normal -0.6087614290087227 -0.7933533402912338 -0.0
  outer loop
    vertex 188.72720779386424 19.72720779386422 0.0
    vertex 189.10000000000002 19.441154273188015 1.9999999999999998
    vertex 188.72720779386424 19.72720779386422 1.9999999999999998
  endloop
endfacet
facet normal -0.38268343236509134 -0.9238795325112861 -0.0
  outer loop
    vertex 189.53412571881546 19.26133351267968 1.9999999999999998
    vertex 189.10000000000002 19.441154273188015 0.0
    vertex 189.53412571881546 19.26133351267968 0.0
  endloop
endfacet
facet normal -0.38268343236509134 -0.9238795325112861 -0.0
  outer loop
    vertex 189.10000000000002 19.441154273188015 0.0
    vertex 189.53412571881546 19.26133351267968 1.9999999999999998
    vertex 189.10000000000002 19.441154273188015 1.9999999999999998
  endloop
endfacet
facet normal -0.1305261922200502 -0.9914448613738107 -0.0
  outer loop
    vertex 190.0 19.200000000000003 1.9999999999999998
    vertex 189.53412571881546 19.26133351267968 0.0
    vertex 190.0 19.200000000000003 0.0
  endloop
endfacet
facet normal -0.1305261922200502 -0.9914448613738107 -0.0
  outer loop
    vertex 189.53412571881546 19.26133351267968 0.0
    vertex 190.0 19.200000000000003 1.9999999999999998
    vertex 189.53412571881546 19.26133351267968 1.9999999999999998
  endloop
endfacet
facet normal 0.1305261922200502 -0.9914448613738107 -0.0
  outer loop
    vertex 190.46587428118454 19.26133351267968 1.9999999999999998
    vertex 190.0 19.200000000000003 0.0
    vertex 190.46587428118454 19.26133351267968 0.0
  endloop
endfacet
facet normal 0.1305261922200502 -0.9914448613738107 -0.0
  outer loop
    vertex 190.0 19.200000000000003 0.0
    vertex 190.46587428118454 19.26133351267968 1.9999999999999998
    vertex 190.0 19.200000000000003 1.9999999999999998
  endloop
endfacet
facet normal 0.38268343236509134 -0.9238795325112861 -0.0
  outer loop
    vertex 190.9 19.441154273188015 1.9999999999999998
    vertex 190.46587428118454 19.26133351267968 0.0
    vertex 190.9 19.441154273188015 0.0
  endloop
endfacet
facet normal 0.38268343236509134 -0.9238795325112861 -0.0
  outer loop
    vertex 190.46587428118454 19.26133351267968 0.0
    vertex 190.9 19.441154273188015 1.9999999999999998
    vertex 190.46587428118454 19.26133351267968 1.9999999999999998
  endloop
endfacet
facet normal 0.6087614290087189 -0.7933533402912365 -0.0
  outer loop
    vertex 191.2727922061358 19.727207793864217 1.9999999999999998
    vertex 190.9 19.441154273188015 0.0
    vertex 191.2727922061358 19.727207793864217 0.0
  endloop
endfacet
facet normal 0.6087614290087189 -0.7933533402912365 -0.0
  outer loop
    vertex 190.9 19.441154273188015 0.0
    vertex 191.2727922061358 19.727207793864217 1.9999999999999998
    vertex 190.9 19.441154273188015 1.9999999999999998
  endloop
endfacet
facet normal 0.7933533402912482 -0.6087614290087038 -0.0
  outer loop
    vertex 191.558845726812 20.1 0.0
    vertex 191.2727922061358 19.727207793864217 1.9999999999999998
    vertex 191.2727922061358 19.727207793864217 0.0
  endloop
endfacet
facet normal 0.7933533402912482 -0.6087614290087038 -0.0
  outer loop
    vertex 191.2727922061358 19.727207793864217 1.9999999999999998
    vertex 191.558845726812 20.1 0.0
    vertex 191.558845726812 20.1 1.9999999999999998
  endloop
endfacet
facet normal 0.9238795325112755 -0.382683432365117 -0.0
  outer loop
    vertex 191.73866648732033 20.534125718815464 0.0
    vertex 191.558845726812 20.1 1.9999999999999998
    vertex 191.558845726812 20.1 0.0
  endloop
endfacet
facet normal 0.9238795325112755 -0.382683432365117 -0.0
  outer loop
    vertex 191.558845726812 20.1 1.9999999999999998
    vertex 191.73866648732033 20.534125718815464 0.0
    vertex 191.73866648732033 20.534125718815464 1.9999999999999998
  endloop
endfacet
facet normal 0.9914448613738114 -0.1305261922200443 -0.0
  outer loop
    vertex 191.8 21.0 0.0
    vertex 191.73866648732033 20.534125718815464 1.9999999999999998
    vertex 191.73866648732033 20.534125718815464 0.0
  endloop
endfacet
facet normal 0.9914448613738114 -0.1305261922200443 -0.0
  outer loop
    vertex 191.73866648732033 20.534125718815464 1.9999999999999998
    vertex 191.8 21.0 0.0
    vertex 191.8 21.0 1.9999999999999998
  endloop
endfacet
facet normal 0.9914448613738114 0.13052619222004508 0.0
  outer loop
    vertex 191.73866648732033 21.465874281184536 0.0
    vertex 191.8 21.0 1.9999999999999998
    vertex 191.8 21.0 0.0
  endloop
endfacet
facet normal 0.9914448613738114 0.13052619222004508 0.0
  outer loop
    vertex 191.8 21.0 1.9999999999999998
    vertex 191.73866648732033 21.465874281184536 0.0
    vertex 191.73866648732033 21.465874281184536 1.9999999999999998
  endloop
endfacet
facet normal 0.9238795325112764 0.3826834323651149 0.0
  outer loop
    vertex 191.558845726812 21.9 0.0
    vertex 191.73866648732033 21.465874281184536 1.9999999999999998
    vertex 191.73866648732033 21.465874281184536 0.0
  endloop
endfacet
facet normal 0.9238795325112764 0.3826834323651149 0.0
  outer loop
    vertex 191.73866648732033 21.465874281184536 1.9999999999999998
    vertex 191.558845726812 21.9 0.0
    vertex 191.558845726812 21.9 1.9999999999999998
  endloop
endfacet
facet normal 0.7933533402912482 0.6087614290087038 0.0
  outer loop
    vertex 191.2727922061358 22.272792206135787 0.0
    vertex 191.558845726812 21.9 1.9999999999999998
    vertex 191.558845726812 21.9 0.0
  endloop
endfacet
facet normal 0.7933533402912482 0.6087614290087038 0.0
  outer loop
    vertex 191.558845726812 21.9 1.9999999999999998
    vertex 191.2727922061358 22.272792206135787 0.0
    vertex 191.2727922061358 22.272792206135787 1.9999999999999998
  endloop
endfacet
facet normal 0.6087614290087189 0.7933533402912365 0.0
  outer loop
    vertex 190.9 22.558845726811988 1.9999999999999998
    vertex 191.2727922061358 22.272792206135787 0.0
    vertex 190.9 22.558845726811988 0.0
  endloop
endfacet
facet normal 0.6087614290087189 0.7933533402912365 0.0
  outer loop
    vertex 191.2727922061358 22.272792206135787 0.0
    vertex 190.9 22.558845726811988 1.9999999999999998
    vertex 191.2727922061358 22.272792206135787 1.9999999999999998
  endloop
endfacet
facet normal 0.38268343236509134 0.9238795325112861 0.0
  outer loop
    vertex 190.46587428118454 22.73866648732032 1.9999999999999998
    vertex 190.9 22.558845726811988 0.0
    vertex 190.46587428118454 22.73866648732032 0.0
  endloop
endfacet
facet normal 0.38268343236509134 0.9238795325112861 0.0
  outer loop
    vertex 190.9 22.558845726811988 0.0
    vertex 190.46587428118454 22.73866648732032 1.9999999999999998
    vertex 190.9 22.558845726811988 1.9999999999999998
  endloop
endfacet
facet normal 0.1305261922200502 0.9914448613738107 0.0
  outer loop
    vertex 190.0 22.799999999999997 1.9999999999999998
    vertex 190.46587428118454 22.73866648732032 0.0
    vertex 190.0 22.799999999999997 0.0
  endloop
endfacet
facet normal 0.1305261922200502 0.9914448613738107 0.0
  outer loop
    vertex 190.46587428118454 22.73866648732032 0.0
    vertex 190.0 22.799999999999997 1.9999999999999998
    vertex 190.46587428118454 22.73866648732032 1.9999999999999998
  endloop
endfacet
facet normal -0.1305261922200502 0.9914448613738107 -0.0
  outer loop
    vertex 189.53412571881546 22.73866648732032 1.9999999999999998
    vertex 190.0 22.799999999999997 0.0
    vertex 189.53412571881546 22.73866648732032 0.0
  endloop
endfacet
facet normal -0.1305261922200502 0.9914448613738107 -0.0
  outer loop
    vertex 190.0 22.799999999999997 0.0
    vertex 189.53412571881546 22.73866648732032 1.9999999999999998
    vertex 190.0 22.799999999999997 1.9999999999999998
  endloop
endfacet
facet normal -0.38268343236509134 0.9238795325112861 -0.0
  outer loop
    vertex 189.10000000000002 22.558845726811988 1.9999999999999998
    vertex 189.53412571881546 22.73866648732032 0.0
    vertex 189.10000000000002 22.558845726811988 0.0
  endloop
endfacet
facet normal -0.38268343236509134 0.9238795325112861 -0.0
  outer loop
    vertex 189.53412571881546 22.73866648732032 0.0
    vertex 189.10000000000002 22.558845726811988 1.9999999999999998
    vertex 189.53412571881546 22.73866648732032 1.9999999999999998
  endloop
endfacet
facet normal -0.6087614290087189 0.7933533402912365 -0.0
  outer loop
    vertex 188.72720779386424 22.272792206135787 1.9999999999999998
    vertex 189.10000000000002 22.558845726811988 0.0
    vertex 188.72720779386424 22.272792206135787 0.0
  endloop
endfacet
facet normal -0.6087614290087189 0.7933533402912365 -0.0
  outer loop
    vertex 189.10000000000002 22.558845726811988 0.0
    vertex 188.72720779386424 22.272792206135787 1.9999999999999998
    vertex 189.10000000000002 22.558845726811988 1.9999999999999998
  endloop
endfacet
facet normal -0.7933533402912482 0.6087614290087038 -0.0
  outer loop
    vertex 188.72720779386424 22.272792206135787 1.9999999999999998
    vertex 188.44115427318803 21.9 0.0
    vertex 188.44115427318803 21.9 1.9999999999999998
  endloop
endfacet
facet normal -0.7933533402912482 0.6087614290087038 -0.0
  outer loop
    vertex 188.44115427318803 21.9 0.0
    vertex 188.72720779386424 22.272792206135787 1.9999999999999998
    vertex 188.72720779386424 22.272792206135787 0.0
  endloop
endfacet
facet normal -0.9238795325112764 0.3826834323651149 -0.0
  outer loop
    vertex 188.44115427318803 21.9 1.9999999999999998
    vertex 188.2613335126797 21.465874281184536 0.0
    vertex 188.2613335126797 21.465874281184536 1.9999999999999998
  endloop
endfacet
facet normal -0.9238795325112764 0.3826834323651149 -0.0
  outer loop
    vertex 188.2613335126797 21.465874281184536 0.0
    vertex 188.44115427318803 21.9 1.9999999999999998
    vertex 188.44115427318803 21.9 0.0
  endloop
endfacet
facet normal 0.13052619222005316 0.9914448613738104 0.0
  outer loop
    vertex 190.0 8.799999999999997 1.9999999999999998
    vertex 190.46587428118454 8.738666487320318 0.0
    vertex 190.0 8.799999999999997 0.0
  endloop
endfacet
facet normal 0.13052619222005316 0.9914448613738104 0.0
  outer loop
    vertex 190.46587428118454 8.738666487320318 0.0
    vertex 190.0 8.799999999999997 1.9999999999999998
    vertex 190.46587428118454 8.738666487320318 1.9999999999999998
  endloop
endfacet
facet normal -0.1305261922200502 0.9914448613738107 -0.0
  outer loop
    vertex 189.53412571881546 8.73866648732032 1.9999999999999998
    vertex 190.0 8.799999999999997 0.0
    vertex 189.53412571881546 8.73866648732032 0.0
  endloop
endfacet
facet normal -0.1305261922200502 0.9914448613738107 -0.0
  outer loop
    vertex 190.0 8.799999999999997 0.0
    vertex 189.53412571881546 8.73866648732032 1.9999999999999998
    vertex 190.0 8.799999999999997 1.9999999999999998
  endloop
endfacet
facet normal -0.38268343236509134 0.9238795325112861 -0.0
  outer loop
    vertex 189.10000000000002 8.558845726811986 1.9999999999999998
    vertex 189.53412571881546 8.73866648732032 0.0
    vertex 189.10000000000002 8.558845726811986 0.0
  endloop
endfacet
facet normal -0.38268343236509134 0.9238795325112861 -0.0
  outer loop
    vertex 189.53412571881546 8.73866648732032 0.0
    vertex 189.10000000000002 8.558845726811986 1.9999999999999998
    vertex 189.53412571881546 8.73866648732032 1.9999999999999998
  endloop
endfacet
facet normal -0.6087614290087208 0.7933533402912353 -0.0
  outer loop
    vertex 188.72720779386424 8.272792206135783 1.9999999999999998
    vertex 189.10000000000002 8.558845726811986 0.0
    vertex 188.72720779386424 8.272792206135783 0.0
  endloop
endfacet
facet normal -0.6087614290087208 0.7933533402912353 -0.0
  outer loop
    vertex 189.10000000000002 8.558845726811986 0.0
    vertex 188.72720779386424 8.272792206135783 1.9999999999999998
    vertex 189.10000000000002 8.558845726811986 1.9999999999999998
  endloop
endfacet
facet normal -0.793353340291247 0.6087614290087052 -0.0
  outer loop
    vertex 188.72720779386424 8.272792206135783 1.9999999999999998
    vertex 188.44115427318803 7.899999999999999 0.0
    vertex 188.44115427318803 7.899999999999999 1.9999999999999998
  endloop
endfacet
facet normal -0.793353340291247 0.6087614290087052 -0.0
  outer loop
    vertex 188.44115427318803 7.899999999999999 0.0
    vertex 188.72720779386424 8.272792206135783 1.9999999999999998
    vertex 188.72720779386424 8.272792206135783 0.0
  endloop
endfacet
facet normal -0.923879532511276 0.3826834323651159 -0.0
  outer loop
    vertex 188.44115427318803 7.899999999999999 1.9999999999999998
    vertex 188.2613335126797 7.465874281184537 0.0
    vertex 188.2613335126797 7.465874281184537 1.9999999999999998
  endloop
endfacet
facet normal -0.923879532511276 0.3826834323651159 -0.0
  outer loop
    vertex 188.2613335126797 7.465874281184537 0.0
    vertex 188.44115427318803 7.899999999999999 1.9999999999999998
    vertex 188.44115427318803 7.899999999999999 0.0
  endloop
endfacet
facet normal -0.9914448613738114 0.1305261922200447 -0.0
  outer loop
    vertex 188.2613335126797 7.465874281184537 1.9999999999999998
    vertex 188.20000000000002 7.0 0.0
    vertex 188.20000000000002 7.0 1.9999999999999998
  endloop
endfacet
facet normal -0.9914448613738114 0.1305261922200447 -0.0
  outer loop
    vertex 188.20000000000002 7.0 0.0
    vertex 188.2613335126797 7.465874281184537 1.9999999999999998
    vertex 188.2613335126797 7.465874281184537 0.0
  endloop
endfacet
facet normal -0.9914448613738114 -0.13052619222004508 -0.0
  outer loop
    vertex 188.20000000000002 7.0 1.9999999999999998
    vertex 188.2613335126797 6.534125718815464 0.0
    vertex 188.2613335126797 6.534125718815464 1.9999999999999998
  endloop
endfacet
facet normal -0.9914448613738114 -0.13052619222004508 -0.0
  outer loop
    vertex 188.2613335126797 6.534125718815464 0.0
    vertex 188.20000000000002 7.0 1.9999999999999998
    vertex 188.20000000000002 7.0 0.0
  endloop
endfacet
facet normal -0.9238795325112763 -0.3826834323651155 -0.0
  outer loop
    vertex 188.2613335126797 6.534125718815464 1.9999999999999998
    vertex 188.44115427318803 6.100000000000002 0.0
    vertex 188.44115427318803 6.100000000000002 1.9999999999999998
  endloop
endfacet
facet normal -0.9238795325112763 -0.3826834323651155 -0.0
  outer loop
    vertex 188.44115427318803 6.100000000000002 0.0
    vertex 188.2613335126797 6.534125718815464 1.9999999999999998
    vertex 188.2613335126797 6.534125718815464 0.0
  endloop
endfacet
facet normal -0.7933533402912477 -0.6087614290087046 -0.0
  outer loop
    vertex 188.44115427318803 6.100000000000002 1.9999999999999998
    vertex 188.72720779386424 5.727207793864217 0.0
    vertex 188.72720779386424 5.727207793864217 1.9999999999999998
  endloop
endfacet
facet normal -0.7933533402912477 -0.6087614290087046 -0.0
  outer loop
    vertex 188.72720779386424 5.727207793864217 0.0
    vertex 188.44115427318803 6.100000000000002 1.9999999999999998
    vertex 188.44115427318803 6.100000000000002 0.0
  endloop
endfacet
facet normal -0.6087614290087198 -0.7933533402912358 -0.0
  outer loop
    vertex 189.10000000000002 5.441154273188014 1.9999999999999998
    vertex 188.72720779386424 5.727207793864217 0.0
    vertex 189.10000000000002 5.441154273188014 0.0
  endloop
endfacet
facet normal -0.6087614290087198 -0.7933533402912358 -0.0
  outer loop
    vertex 188.72720779386424 5.727207793864217 0.0
    vertex 189.10000000000002 5.441154273188014 1.9999999999999998
    vertex 188.72720779386424 5.727207793864217 1.9999999999999998
  endloop
endfacet
facet normal -0.38268343236509134 -0.9238795325112861 -0.0
  outer loop
    vertex 189.53412571881546 5.2613335126796805 1.9999999999999998
    vertex 189.10000000000002 5.441154273188014 0.0
    vertex 189.53412571881546 5.2613335126796805 0.0
  endloop
endfacet
facet normal -0.38268343236509134 -0.9238795325112861 -0.0
  outer loop
    vertex 189.10000000000002 5.441154273188014 0.0
    vertex 189.53412571881546 5.2613335126796805 1.9999999999999998
    vertex 189.10000000000002 5.441154273188014 1.9999999999999998
  endloop
endfacet
facet normal -0.13052619222005166 -0.9914448613738104 -0.0
  outer loop
    vertex 190.0 5.200000000000003 1.9999999999999998
    vertex 189.53412571881546 5.2613335126796805 0.0
    vertex 190.0 5.200000000000003 0.0
  endloop
endfacet
facet normal -0.13052619222005166 -0.9914448613738104 -0.0
  outer loop
    vertex 189.53412571881546 5.2613335126796805 0.0
    vertex 190.0 5.200000000000003 1.9999999999999998
    vertex 189.53412571881546 5.2613335126796805 1.9999999999999998
  endloop
endfacet
facet normal 0.1305261922200502 -0.9914448613738107 -0.0
  outer loop
    vertex 190.46587428118454 5.26133351267968 1.9999999999999998
    vertex 190.0 5.200000000000003 0.0
    vertex 190.46587428118454 5.26133351267968 0.0
  endloop
endfacet
facet normal 0.1305261922200502 -0.9914448613738107 -0.0
  outer loop
    vertex 190.0 5.200000000000003 0.0
    vertex 190.46587428118454 5.26133351267968 1.9999999999999998
    vertex 190.0 5.200000000000003 1.9999999999999998
  endloop
endfacet
facet normal 0.38268343236509134 -0.9238795325112861 -0.0
  outer loop
    vertex 190.9 5.441154273188013 1.9999999999999998
    vertex 190.46587428118454 5.26133351267968 0.0
    vertex 190.9 5.441154273188013 0.0
  endloop
endfacet
facet normal 0.38268343236509134 -0.9238795325112861 -0.0
  outer loop
    vertex 190.46587428118454 5.26133351267968 0.0
    vertex 190.9 5.441154273188013 1.9999999999999998
    vertex 190.46587428118454 5.26133351267968 1.9999999999999998
  endloop
endfacet
facet normal 0.6087614290087198 -0.7933533402912358 -0.0
  outer loop
    vertex 191.2727922061358 5.727207793864216 1.9999999999999998
    vertex 190.9 5.441154273188013 0.0
    vertex 191.2727922061358 5.727207793864216 0.0
  endloop
endfacet
facet normal 0.6087614290087198 -0.7933533402912358 -0.0
  outer loop
    vertex 190.9 5.441154273188013 0.0
    vertex 191.2727922061358 5.727207793864216 1.9999999999999998
    vertex 190.9 5.441154273188013 1.9999999999999998
  endloop
endfacet
facet normal 0.793353340291247 -0.6087614290087052 -0.0
  outer loop
    vertex 191.558845726812 6.1000000000000005 0.0
    vertex 191.2727922061358 5.727207793864216 1.9999999999999998
    vertex 191.2727922061358 5.727207793864216 0.0
  endloop
endfacet
facet normal 0.793353340291247 -0.6087614290087052 -0.0
  outer loop
    vertex 191.2727922061358 5.727207793864216 1.9999999999999998
    vertex 191.558845726812 6.1000000000000005 0.0
    vertex 191.558845726812 6.1000000000000005 1.9999999999999998
  endloop
endfacet
facet normal 0.9238795325112763 -0.3826834323651155 -0.0
  outer loop
    vertex 191.73866648732033 6.534125718815463 0.0
    vertex 191.558845726812 6.1000000000000005 1.9999999999999998
    vertex 191.558845726812 6.1000000000000005 0.0
  endloop
endfacet
facet normal 0.9238795325112763 -0.3826834323651155 -0.0
  outer loop
    vertex 191.558845726812 6.1000000000000005 1.9999999999999998
    vertex 191.73866648732033 6.534125718815463 0.0
    vertex 191.73866648732033 6.534125718815463 1.9999999999999998
  endloop
endfacet
facet normal 0.9914448613738114 -0.1305261922200447 -0.0
  outer loop
    vertex 191.8 7.0 0.0
    vertex 191.73866648732033 6.534125718815463 1.9999999999999998
    vertex 191.73866648732033 6.534125718815463 0.0
  endloop
endfacet
facet normal 0.9914448613738114 -0.1305261922200447 -0.0
  outer loop
    vertex 191.73866648732033 6.534125718815463 1.9999999999999998
    vertex 191.8 7.0 0.0
    vertex 191.8 7.0 1.9999999999999998
  endloop
endfacet
facet normal 0.9914448613738114 0.13052619222004508 0.0
  outer loop
    vertex 191.73866648732033 7.4658742811845356 0.0
    vertex 191.8 7.0 1.9999999999999998
    vertex 191.8 7.0 0.0
  endloop
endfacet
facet normal 0.9914448613738114 0.13052619222004508 0.0
  outer loop
    vertex 191.8 7.0 1.9999999999999998
    vertex 191.73866648732033 7.4658742811845356 0.0
    vertex 191.73866648732033 7.4658742811845356 1.9999999999999998
  endloop
endfacet
facet normal 0.9238795325112764 0.3826834323651149 0.0
  outer loop
    vertex 191.558845726812 7.899999999999999 0.0
    vertex 191.73866648732033 7.4658742811845356 1.9999999999999998
    vertex 191.73866648732033 7.4658742811845356 0.0
  endloop
endfacet
facet normal 0.9238795325112764 0.3826834323651149 0.0
  outer loop
    vertex 191.73866648732033 7.4658742811845356 1.9999999999999998
    vertex 191.558845726812 7.899999999999999 0.0
    vertex 191.558845726812 7.899999999999999 1.9999999999999998
  endloop
endfacet
facet normal 0.793353340291247 0.6087614290087052 0.0
  outer loop
    vertex 191.2727922061358 8.272792206135783 0.0
    vertex 191.558845726812 7.899999999999999 1.9999999999999998
    vertex 191.558845726812 7.899999999999999 0.0
  endloop
endfacet
facet normal 0.793353340291247 0.6087614290087052 0.0
  outer loop
    vertex 191.558845726812 7.899999999999999 1.9999999999999998
    vertex 191.2727922061358 8.272792206135783 0.0
    vertex 191.2727922061358 8.272792206135783 1.9999999999999998
  endloop
endfacet
facet normal 0.6087614290087208 0.7933533402912353 0.0
  outer loop
    vertex 190.9 8.558845726811986 1.9999999999999998
    vertex 191.2727922061358 8.272792206135783 0.0
    vertex 190.9 8.558845726811986 0.0
  endloop
endfacet
facet normal 0.6087614290087208 0.7933533402912353 0.0
  outer loop
    vertex 191.2727922061358 8.272792206135783 0.0
    vertex 190.9 8.558845726811986 1.9999999999999998
    vertex 191.2727922061358 8.272792206135783 1.9999999999999998
  endloop
endfacet
facet normal 0.3826834323650888 0.9238795325112872 0.0
  outer loop
    vertex 190.46587428118454 8.738666487320318 1.9999999999999998
    vertex 190.9 8.558845726811986 0.0
    vertex 190.46587428118454 8.738666487320318 0.0
  endloop
endfacet
facet normal 0.3826834323650888 0.9238795325112872 0.0
  outer loop
    vertex 190.9 8.558845726811986 0.0
    vertex 190.46587428118454 8.738666487320318 1.9999999999999998
    vertex 190.9 8.558845726811986 1.9999999999999998
  endloop
endfacet
facet normal 0.0 0.0 -1.0
  outer loop
    vertex 185.50000000000003 28.500000000000004 1.0000000000000002
    vertex 7.5 1.5 1.0000000000000002
    vertex 7.5 28.500000000000004 1.0000000000000002
  endloop
endfacet
facet normal 0.0 0.0 -1.0
  outer loop
    vertex 7.5 1.5 1.0000000000000002
    vertex 185.50000000000003 28.500000000000004 1.0000000000000002
    vertex 185.50000000000003 1.5 1.0000000000000002
  endloop
endfacet
facet normal 1.0 0.0 0.0
  outer loop
    vertex 185.50000000000003 28.500000000000004 1.0000000000000002
    vertex 185.50000000000003 1.5 5.0
    vertex 185.50000000000003 1.5 1.0000000000000002
  endloop
endfacet
facet normal 1.0 0.0 0.0
  outer loop
    vertex 185.50000000000003 1.5 5.0
    vertex 185.50000000000003 28.500000000000004 1.0000000000000002
    vertex 185.50000000000003 28.500000000000004 5.0
  endloop
endfacet
facet normal -0.0 -1.0 -0.0
  outer loop
    vertex 185.50000000000003 1.5 5.0
    vertex 7.5 1.5 1.0000000000000002
    vertex 185.50000000000003 1.5 1.0000000000000002
  endloop
endfacet
facet normal -0.0 -1.0 -0.0
  outer loop
    vertex 7.5 1.5 1.0000000000000002
    vertex 185.50000000000003 1.5 5.0
    vertex 7.5 1.5 5.0
  endloop
endfacet
facet normal -1.0 0.0 0.0
  outer loop
    vertex 7.5 28.500000000000004 5.0
    vertex 7.5 1.5 1.0000000000000002
    vertex 7.5 1.5 5.0
  endloop
endfacet
facet normal -1.0 0.0 0.0
  outer loop
    vertex 7.5 1.5 1.0000000000000002
    vertex 7.5 28.500000000000004 5.0
    vertex 7.5 28.500000000000004 1.0000000000000002
  endloop
endfacet
facet normal -0.0 1.0 0.0
  outer loop
    vertex 7.5 28.500000000000004 5.0
    vertex 185.50000000000003 28.500000000000004 1.0000000000000002
    vertex 7.5 28.500000000000004 1.0000000000000002
  endloop
endfacet
facet normal -0.0 1.0 0.0
  outer loop
    vertex 185.50000000000003 28.500000000000004 1.0000000000000002
    vertex 7.5 28.500000000000004 5.0
    vertex 185.50000000000003 28.500000000000004 5.0
  endloop
endfacet
endsolid StandCrossMember
